ISO-10303-21;
HEADER;
/* Generated by software containing ST-Developer
 * from STEP Tools, Inc. (www.steptools.com) 
 */

FILE_DESCRIPTION(
/* description */ (''),
/* implementation_level */ '2;1');

FILE_NAME(
/* name */ 'package_v3.step',
/* time_stamp */ '2026-04-07T17:14:53+02:00',
/* author */ (''),
/* organization */ (''),
/* preprocessor_version */ 'ST-DEVELOPER v20.1',
/* originating_system */ 'Autodesk Translation Framework v14.21.0.0',
/* authorisation */ '');

FILE_SCHEMA (('AUTOMOTIVE_DESIGN { 1 0 10303 214 3 1 1 }'));
ENDSEC;

DATA;
#10=MECHANICAL_DESIGN_GEOMETRIC_PRESENTATION_REPRESENTATION('',(#13),#1530);
#11=SHAPE_REPRESENTATION_RELATIONSHIP('SRR','None',#1537,#12);
#12=ADVANCED_BREP_SHAPE_REPRESENTATION('',(#14),#1529);
#13=STYLED_ITEM('',(#1546),#14);
#14=MANIFOLD_SOLID_BREP('Cuerpo1',#962);
#15=FACE_BOUND('',#75,.T.);
#16=FACE_BOUND('',#76,.T.);
#17=FACE_BOUND('',#77,.T.);
#18=FACE_BOUND('',#78,.T.);
#19=FACE_BOUND('',#123,.T.);
#20=FACE_BOUND('',#124,.T.);
#21=FACE_OUTER_BOUND('',#72,.T.);
#22=FACE_OUTER_BOUND('',#73,.T.);
#23=FACE_OUTER_BOUND('',#74,.T.);
#24=FACE_OUTER_BOUND('',#79,.T.);
#25=FACE_OUTER_BOUND('',#80,.T.);
#26=FACE_OUTER_BOUND('',#81,.T.);
#27=FACE_OUTER_BOUND('',#82,.T.);
#28=FACE_OUTER_BOUND('',#83,.T.);
#29=FACE_OUTER_BOUND('',#84,.T.);
#30=FACE_OUTER_BOUND('',#85,.T.);
#31=FACE_OUTER_BOUND('',#86,.T.);
#32=FACE_OUTER_BOUND('',#87,.T.);
#33=FACE_OUTER_BOUND('',#88,.T.);
#34=FACE_OUTER_BOUND('',#89,.T.);
#35=FACE_OUTER_BOUND('',#90,.T.);
#36=FACE_OUTER_BOUND('',#91,.T.);
#37=FACE_OUTER_BOUND('',#92,.T.);
#38=FACE_OUTER_BOUND('',#93,.T.);
#39=FACE_OUTER_BOUND('',#94,.T.);
#40=FACE_OUTER_BOUND('',#95,.T.);
#41=FACE_OUTER_BOUND('',#96,.T.);
#42=FACE_OUTER_BOUND('',#97,.T.);
#43=FACE_OUTER_BOUND('',#98,.T.);
#44=FACE_OUTER_BOUND('',#99,.T.);
#45=FACE_OUTER_BOUND('',#100,.T.);
#46=FACE_OUTER_BOUND('',#101,.T.);
#47=FACE_OUTER_BOUND('',#102,.T.);
#48=FACE_OUTER_BOUND('',#103,.T.);
#49=FACE_OUTER_BOUND('',#104,.T.);
#50=FACE_OUTER_BOUND('',#105,.T.);
#51=FACE_OUTER_BOUND('',#106,.T.);
#52=FACE_OUTER_BOUND('',#107,.T.);
#53=FACE_OUTER_BOUND('',#108,.T.);
#54=FACE_OUTER_BOUND('',#109,.T.);
#55=FACE_OUTER_BOUND('',#110,.T.);
#56=FACE_OUTER_BOUND('',#111,.T.);
#57=FACE_OUTER_BOUND('',#112,.T.);
#58=FACE_OUTER_BOUND('',#113,.T.);
#59=FACE_OUTER_BOUND('',#114,.T.);
#60=FACE_OUTER_BOUND('',#115,.T.);
#61=FACE_OUTER_BOUND('',#116,.T.);
#62=FACE_OUTER_BOUND('',#117,.T.);
#63=FACE_OUTER_BOUND('',#118,.T.);
#64=FACE_OUTER_BOUND('',#119,.T.);
#65=FACE_OUTER_BOUND('',#120,.T.);
#66=FACE_OUTER_BOUND('',#121,.T.);
#67=FACE_OUTER_BOUND('',#122,.T.);
#68=FACE_OUTER_BOUND('',#125,.T.);
#69=FACE_OUTER_BOUND('',#126,.T.);
#70=FACE_OUTER_BOUND('',#127,.T.);
#71=FACE_OUTER_BOUND('',#128,.T.);
#72=EDGE_LOOP('',(#602,#603,#604,#605));
#73=EDGE_LOOP('',(#606,#607,#608,#609,#610,#611,#612,#613));
#74=EDGE_LOOP('',(#614,#615,#616,#617,#618,#619,#620,#621));
#75=EDGE_LOOP('',(#622,#623,#624,#625));
#76=EDGE_LOOP('',(#626,#627,#628,#629));
#77=EDGE_LOOP('',(#630,#631,#632,#633));
#78=EDGE_LOOP('',(#634,#635,#636,#637,#638));
#79=EDGE_LOOP('',(#639,#640,#641,#642));
#80=EDGE_LOOP('',(#643,#644,#645,#646));
#81=EDGE_LOOP('',(#647,#648,#649,#650));
#82=EDGE_LOOP('',(#651,#652,#653,#654));
#83=EDGE_LOOP('',(#655,#656,#657,#658));
#84=EDGE_LOOP('',(#659,#660,#661,#662));
#85=EDGE_LOOP('',(#663,#664,#665,#666));
#86=EDGE_LOOP('',(#667,#668,#669,#670));
#87=EDGE_LOOP('',(#671,#672,#673,#674));
#88=EDGE_LOOP('',(#675,#676,#677,#678));
#89=EDGE_LOOP('',(#679,#680,#681,#682));
#90=EDGE_LOOP('',(#683,#684,#685,#686));
#91=EDGE_LOOP('',(#687,#688,#689,#690,#691,#692,#693,#694));
#92=EDGE_LOOP('',(#695,#696,#697,#698));
#93=EDGE_LOOP('',(#699,#700,#701,#702));
#94=EDGE_LOOP('',(#703,#704,#705,#706));
#95=EDGE_LOOP('',(#707,#708,#709,#710));
#96=EDGE_LOOP('',(#711,#712,#713,#714));
#97=EDGE_LOOP('',(#715,#716,#717,#718,#719));
#98=EDGE_LOOP('',(#720,#721,#722,#723));
#99=EDGE_LOOP('',(#724,#725,#726,#727));
#100=EDGE_LOOP('',(#728,#729,#730,#731));
#101=EDGE_LOOP('',(#732,#733,#734,#735));
#102=EDGE_LOOP('',(#736,#737,#738,#739));
#103=EDGE_LOOP('',(#740,#741,#742,#743));
#104=EDGE_LOOP('',(#744,#745,#746,#747));
#105=EDGE_LOOP('',(#748,#749,#750,#751));
#106=EDGE_LOOP('',(#752,#753,#754,#755));
#107=EDGE_LOOP('',(#756,#757,#758,#759));
#108=EDGE_LOOP('',(#760,#761,#762,#763));
#109=EDGE_LOOP('',(#764,#765,#766,#767));
#110=EDGE_LOOP('',(#768,#769,#770,#771));
#111=EDGE_LOOP('',(#772,#773,#774,#775));
#112=EDGE_LOOP('',(#776,#777,#778,#779));
#113=EDGE_LOOP('',(#780,#781,#782,#783,#784,#785));
#114=EDGE_LOOP('',(#786,#787,#788,#789));
#115=EDGE_LOOP('',(#790,#791,#792,#793));
#116=EDGE_LOOP('',(#794,#795,#796,#797));
#117=EDGE_LOOP('',(#798,#799,#800,#801));
#118=EDGE_LOOP('',(#802,#803,#804,#805));
#119=EDGE_LOOP('',(#806,#807,#808,#809,#810,#811,#812,#813));
#120=EDGE_LOOP('',(#814,#815,#816,#817));
#121=EDGE_LOOP('',(#818,#819,#820,#821,#822,#823,#824,#825));
#122=EDGE_LOOP('',(#826,#827,#828,#829));
#123=EDGE_LOOP('',(#830,#831,#832,#833));
#124=EDGE_LOOP('',(#834,#835,#836,#837,#838,#839));
#125=EDGE_LOOP('',(#840,#841,#842,#843));
#126=EDGE_LOOP('',(#844,#845,#846,#847,#848,#849,#850,#851));
#127=EDGE_LOOP('',(#852,#853,#854,#855));
#128=EDGE_LOOP('',(#856,#857,#858,#859));
#129=LINE('',#1264,#258);
#130=LINE('',#1266,#259);
#131=LINE('',#1268,#260);
#132=LINE('',#1269,#261);
#133=LINE('',#1272,#262);
#134=LINE('',#1274,#263);
#135=LINE('',#1276,#264);
#136=LINE('',#1278,#265);
#137=LINE('',#1280,#266);
#138=LINE('',#1282,#267);
#139=LINE('',#1283,#268);
#140=LINE('',#1286,#269);
#141=LINE('',#1288,#270);
#142=LINE('',#1290,#271);
#143=LINE('',#1292,#272);
#144=LINE('',#1294,#273);
#145=LINE('',#1295,#274);
#146=LINE('',#1298,#275);
#147=LINE('',#1300,#276);
#148=LINE('',#1302,#277);
#149=LINE('',#1303,#278);
#150=LINE('',#1306,#279);
#151=LINE('',#1308,#280);
#152=LINE('',#1310,#281);
#153=LINE('',#1311,#282);
#154=LINE('',#1314,#283);
#155=LINE('',#1316,#284);
#156=LINE('',#1318,#285);
#157=LINE('',#1319,#286);
#158=LINE('',#1322,#287);
#159=LINE('',#1324,#288);
#160=LINE('',#1326,#289);
#161=LINE('',#1328,#290);
#162=LINE('',#1329,#291);
#163=LINE('',#1332,#292);
#164=LINE('',#1334,#293);
#165=LINE('',#1335,#294);
#166=LINE('',#1338,#295);
#167=LINE('',#1340,#296);
#168=LINE('',#1341,#297);
#169=LINE('',#1344,#298);
#170=LINE('',#1345,#299);
#171=LINE('',#1348,#300);
#172=LINE('',#1349,#301);
#173=LINE('',#1352,#302);
#174=LINE('',#1354,#303);
#175=LINE('',#1355,#304);
#176=LINE('',#1358,#305);
#177=LINE('',#1360,#306);
#178=LINE('',#1361,#307);
#179=LINE('',#1364,#308);
#180=LINE('',#1365,#309);
#181=LINE('',#1368,#310);
#182=LINE('',#1369,#311);
#183=LINE('',#1372,#312);
#184=LINE('',#1373,#313);
#185=LINE('',#1376,#314);
#186=LINE('',#1378,#315);
#187=LINE('',#1379,#316);
#188=LINE('',#1383,#317);
#189=LINE('',#1385,#318);
#190=LINE('',#1387,#319);
#191=LINE('',#1388,#320);
#192=LINE('',#1391,#321);
#193=LINE('',#1393,#322);
#194=LINE('',#1394,#323);
#195=LINE('',#1397,#324);
#196=LINE('',#1399,#325);
#197=LINE('',#1400,#326);
#198=LINE('',#1402,#327);
#199=LINE('',#1403,#328);
#200=LINE('',#1405,#329);
#201=LINE('',#1406,#330);
#202=LINE('',#1408,#331);
#203=LINE('',#1412,#332);
#204=LINE('',#1414,#333);
#205=LINE('',#1416,#334);
#206=LINE('',#1417,#335);
#207=LINE('',#1420,#336);
#208=LINE('',#1421,#337);
#209=LINE('',#1423,#338);
#210=LINE('',#1427,#339);
#211=LINE('',#1428,#340);
#212=LINE('',#1430,#341);
#213=LINE('',#1434,#342);
#214=LINE('',#1435,#343);
#215=LINE('',#1437,#344);
#216=LINE('',#1441,#345);
#217=LINE('',#1442,#346);
#218=LINE('',#1444,#347);
#219=LINE('',#1449,#348);
#220=LINE('',#1451,#349);
#221=LINE('',#1453,#350);
#222=LINE('',#1454,#351);
#223=LINE('',#1457,#352);
#224=LINE('',#1459,#353);
#225=LINE('',#1460,#354);
#226=LINE('',#1463,#355);
#227=LINE('',#1465,#356);
#228=LINE('',#1466,#357);
#229=LINE('',#1469,#358);
#230=LINE('',#1471,#359);
#231=LINE('',#1472,#360);
#232=LINE('',#1475,#361);
#233=LINE('',#1477,#362);
#234=LINE('',#1478,#363);
#235=LINE('',#1480,#364);
#236=LINE('',#1481,#365);
#237=LINE('',#1485,#366);
#238=LINE('',#1487,#367);
#239=LINE('',#1488,#368);
#240=LINE('',#1491,#369);
#241=LINE('',#1493,#370);
#242=LINE('',#1494,#371);
#243=LINE('',#1496,#372);
#244=LINE('',#1497,#373);
#245=LINE('',#1501,#374);
#246=LINE('',#1503,#375);
#247=LINE('',#1504,#376);
#248=LINE('',#1507,#377);
#249=LINE('',#1508,#378);
#250=LINE('',#1511,#379);
#251=LINE('',#1512,#380);
#252=LINE('',#1514,#381);
#253=LINE('',#1518,#382);
#254=LINE('',#1519,#383);
#255=LINE('',#1522,#384);
#256=LINE('',#1523,#385);
#257=LINE('',#1525,#386);
#258=VECTOR('',#1031,10.);
#259=VECTOR('',#1032,10.);
#260=VECTOR('',#1033,10.);
#261=VECTOR('',#1034,10.);
#262=VECTOR('',#1037,10.);
#263=VECTOR('',#1038,10.);
#264=VECTOR('',#1039,10.);
#265=VECTOR('',#1040,10.);
#266=VECTOR('',#1041,10.);
#267=VECTOR('',#1042,10.);
#268=VECTOR('',#1043,10.);
#269=VECTOR('',#1046,10.);
#270=VECTOR('',#1047,10.);
#271=VECTOR('',#1048,10.);
#272=VECTOR('',#1049,10.);
#273=VECTOR('',#1050,10.);
#274=VECTOR('',#1051,10.);
#275=VECTOR('',#1052,10.);
#276=VECTOR('',#1053,10.);
#277=VECTOR('',#1054,10.);
#278=VECTOR('',#1055,10.);
#279=VECTOR('',#1056,10.);
#280=VECTOR('',#1057,10.);
#281=VECTOR('',#1058,10.);
#282=VECTOR('',#1059,10.);
#283=VECTOR('',#1060,10.);
#284=VECTOR('',#1061,10.);
#285=VECTOR('',#1062,10.);
#286=VECTOR('',#1063,10.);
#287=VECTOR('',#1064,10.);
#288=VECTOR('',#1065,10.);
#289=VECTOR('',#1066,10.);
#290=VECTOR('',#1067,10.);
#291=VECTOR('',#1068,10.);
#292=VECTOR('',#1071,10.);
#293=VECTOR('',#1072,10.);
#294=VECTOR('',#1073,10.);
#295=VECTOR('',#1076,10.);
#296=VECTOR('',#1077,10.);
#297=VECTOR('',#1078,10.);
#298=VECTOR('',#1081,10.);
#299=VECTOR('',#1082,10.);
#300=VECTOR('',#1085,10.);
#301=VECTOR('',#1086,10.);
#302=VECTOR('',#1089,10.);
#303=VECTOR('',#1090,10.);
#304=VECTOR('',#1091,10.);
#305=VECTOR('',#1094,10.);
#306=VECTOR('',#1095,10.);
#307=VECTOR('',#1096,10.);
#308=VECTOR('',#1099,10.);
#309=VECTOR('',#1100,10.);
#310=VECTOR('',#1103,10.);
#311=VECTOR('',#1104,10.);
#312=VECTOR('',#1107,10.);
#313=VECTOR('',#1108,10.);
#314=VECTOR('',#1111,10.);
#315=VECTOR('',#1112,10.);
#316=VECTOR('',#1113,10.);
#317=VECTOR('',#1116,10.);
#318=VECTOR('',#1117,10.);
#319=VECTOR('',#1118,10.);
#320=VECTOR('',#1119,10.);
#321=VECTOR('',#1122,10.);
#322=VECTOR('',#1123,10.);
#323=VECTOR('',#1124,10.);
#324=VECTOR('',#1127,10.);
#325=VECTOR('',#1128,10.);
#326=VECTOR('',#1129,10.);
#327=VECTOR('',#1130,10.);
#328=VECTOR('',#1131,10.);
#329=VECTOR('',#1134,10.);
#330=VECTOR('',#1135,10.);
#331=VECTOR('',#1138,10.);
#332=VECTOR('',#1141,10.);
#333=VECTOR('',#1142,10.);
#334=VECTOR('',#1143,10.);
#335=VECTOR('',#1144,10.);
#336=VECTOR('',#1147,10.);
#337=VECTOR('',#1148,10.);
#338=VECTOR('',#1151,10.);
#339=VECTOR('',#1156,10.);
#340=VECTOR('',#1157,10.);
#341=VECTOR('',#1160,10.);
#342=VECTOR('',#1165,10.);
#343=VECTOR('',#1166,10.);
#344=VECTOR('',#1169,10.);
#345=VECTOR('',#1174,10.);
#346=VECTOR('',#1175,10.);
#347=VECTOR('',#1178,10.);
#348=VECTOR('',#1183,10.);
#349=VECTOR('',#1184,10.);
#350=VECTOR('',#1185,10.);
#351=VECTOR('',#1186,10.);
#352=VECTOR('',#1189,10.);
#353=VECTOR('',#1190,10.);
#354=VECTOR('',#1191,10.);
#355=VECTOR('',#1194,10.);
#356=VECTOR('',#1195,10.);
#357=VECTOR('',#1196,10.);
#358=VECTOR('',#1199,10.);
#359=VECTOR('',#1200,10.);
#360=VECTOR('',#1201,10.);
#361=VECTOR('',#1204,10.);
#362=VECTOR('',#1205,10.);
#363=VECTOR('',#1206,10.);
#364=VECTOR('',#1209,10.);
#365=VECTOR('',#1210,10.);
#366=VECTOR('',#1215,10.);
#367=VECTOR('',#1216,10.);
#368=VECTOR('',#1217,10.);
#369=VECTOR('',#1220,10.);
#370=VECTOR('',#1221,10.);
#371=VECTOR('',#1222,10.);
#372=VECTOR('',#1225,10.);
#373=VECTOR('',#1226,10.);
#374=VECTOR('',#1231,10.);
#375=VECTOR('',#1232,10.);
#376=VECTOR('',#1233,10.);
#377=VECTOR('',#1236,10.);
#378=VECTOR('',#1237,10.);
#379=VECTOR('',#1240,10.);
#380=VECTOR('',#1241,10.);
#381=VECTOR('',#1244,10.);
#382=VECTOR('',#1249,10.);
#383=VECTOR('',#1250,10.);
#384=VECTOR('',#1253,10.);
#385=VECTOR('',#1254,10.);
#386=VECTOR('',#1257,10.);
#387=VERTEX_POINT('',#1262);
#388=VERTEX_POINT('',#1263);
#389=VERTEX_POINT('',#1265);
#390=VERTEX_POINT('',#1267);
#391=VERTEX_POINT('',#1271);
#392=VERTEX_POINT('',#1273);
#393=VERTEX_POINT('',#1275);
#394=VERTEX_POINT('',#1277);
#395=VERTEX_POINT('',#1279);
#396=VERTEX_POINT('',#1281);
#397=VERTEX_POINT('',#1285);
#398=VERTEX_POINT('',#1287);
#399=VERTEX_POINT('',#1289);
#400=VERTEX_POINT('',#1291);
#401=VERTEX_POINT('',#1293);
#402=VERTEX_POINT('',#1296);
#403=VERTEX_POINT('',#1297);
#404=VERTEX_POINT('',#1299);
#405=VERTEX_POINT('',#1301);
#406=VERTEX_POINT('',#1304);
#407=VERTEX_POINT('',#1305);
#408=VERTEX_POINT('',#1307);
#409=VERTEX_POINT('',#1309);
#410=VERTEX_POINT('',#1312);
#411=VERTEX_POINT('',#1313);
#412=VERTEX_POINT('',#1315);
#413=VERTEX_POINT('',#1317);
#414=VERTEX_POINT('',#1320);
#415=VERTEX_POINT('',#1321);
#416=VERTEX_POINT('',#1323);
#417=VERTEX_POINT('',#1325);
#418=VERTEX_POINT('',#1327);
#419=VERTEX_POINT('',#1331);
#420=VERTEX_POINT('',#1333);
#421=VERTEX_POINT('',#1337);
#422=VERTEX_POINT('',#1339);
#423=VERTEX_POINT('',#1343);
#424=VERTEX_POINT('',#1347);
#425=VERTEX_POINT('',#1351);
#426=VERTEX_POINT('',#1353);
#427=VERTEX_POINT('',#1357);
#428=VERTEX_POINT('',#1359);
#429=VERTEX_POINT('',#1363);
#430=VERTEX_POINT('',#1367);
#431=VERTEX_POINT('',#1371);
#432=VERTEX_POINT('',#1375);
#433=VERTEX_POINT('',#1377);
#434=VERTEX_POINT('',#1381);
#435=VERTEX_POINT('',#1382);
#436=VERTEX_POINT('',#1384);
#437=VERTEX_POINT('',#1386);
#438=VERTEX_POINT('',#1390);
#439=VERTEX_POINT('',#1392);
#440=VERTEX_POINT('',#1396);
#441=VERTEX_POINT('',#1398);
#442=VERTEX_POINT('',#1401);
#443=VERTEX_POINT('',#1410);
#444=VERTEX_POINT('',#1411);
#445=VERTEX_POINT('',#1413);
#446=VERTEX_POINT('',#1415);
#447=VERTEX_POINT('',#1419);
#448=VERTEX_POINT('',#1426);
#449=VERTEX_POINT('',#1433);
#450=VERTEX_POINT('',#1440);
#451=VERTEX_POINT('',#1447);
#452=VERTEX_POINT('',#1448);
#453=VERTEX_POINT('',#1450);
#454=VERTEX_POINT('',#1452);
#455=VERTEX_POINT('',#1456);
#456=VERTEX_POINT('',#1458);
#457=VERTEX_POINT('',#1462);
#458=VERTEX_POINT('',#1464);
#459=VERTEX_POINT('',#1468);
#460=VERTEX_POINT('',#1470);
#461=VERTEX_POINT('',#1474);
#462=VERTEX_POINT('',#1476);
#463=VERTEX_POINT('',#1484);
#464=VERTEX_POINT('',#1486);
#465=VERTEX_POINT('',#1490);
#466=VERTEX_POINT('',#1492);
#467=VERTEX_POINT('',#1500);
#468=VERTEX_POINT('',#1502);
#469=VERTEX_POINT('',#1506);
#470=VERTEX_POINT('',#1510);
#471=VERTEX_POINT('',#1517);
#472=VERTEX_POINT('',#1521);
#473=EDGE_CURVE('',#387,#388,#129,.T.);
#474=EDGE_CURVE('',#389,#387,#130,.T.);
#475=EDGE_CURVE('',#390,#389,#131,.T.);
#476=EDGE_CURVE('',#388,#390,#132,.T.);
#477=EDGE_CURVE('',#391,#389,#133,.T.);
#478=EDGE_CURVE('',#392,#387,#134,.T.);
#479=EDGE_CURVE('',#393,#392,#135,.T.);
#480=EDGE_CURVE('',#394,#393,#136,.T.);
#481=EDGE_CURVE('',#394,#395,#137,.T.);
#482=EDGE_CURVE('',#396,#395,#138,.T.);
#483=EDGE_CURVE('',#391,#396,#139,.T.);
#484=EDGE_CURVE('',#388,#397,#140,.T.);
#485=EDGE_CURVE('',#397,#398,#141,.T.);
#486=EDGE_CURVE('',#398,#399,#142,.T.);
#487=EDGE_CURVE('',#400,#399,#143,.T.);
#488=EDGE_CURVE('',#400,#401,#144,.T.);
#489=EDGE_CURVE('',#401,#392,#145,.T.);
#490=EDGE_CURVE('',#402,#403,#146,.T.);
#491=EDGE_CURVE('',#403,#404,#147,.T.);
#492=EDGE_CURVE('',#404,#405,#148,.T.);
#493=EDGE_CURVE('',#405,#402,#149,.T.);
#494=EDGE_CURVE('',#406,#407,#150,.T.);
#495=EDGE_CURVE('',#407,#408,#151,.T.);
#496=EDGE_CURVE('',#408,#409,#152,.T.);
#497=EDGE_CURVE('',#409,#406,#153,.T.);
#498=EDGE_CURVE('',#410,#411,#154,.T.);
#499=EDGE_CURVE('',#411,#412,#155,.T.);
#500=EDGE_CURVE('',#412,#413,#156,.T.);
#501=EDGE_CURVE('',#413,#410,#157,.T.);
#502=EDGE_CURVE('',#414,#415,#158,.T.);
#503=EDGE_CURVE('',#415,#416,#159,.T.);
#504=EDGE_CURVE('',#416,#417,#160,.T.);
#505=EDGE_CURVE('',#417,#418,#161,.T.);
#506=EDGE_CURVE('',#418,#414,#162,.T.);
#507=EDGE_CURVE('',#419,#403,#163,.T.);
#508=EDGE_CURVE('',#420,#419,#164,.T.);
#509=EDGE_CURVE('',#404,#420,#165,.T.);
#510=EDGE_CURVE('',#421,#411,#166,.T.);
#511=EDGE_CURVE('',#422,#421,#167,.T.);
#512=EDGE_CURVE('',#412,#422,#168,.T.);
#513=EDGE_CURVE('',#423,#410,#169,.T.);
#514=EDGE_CURVE('',#421,#423,#170,.T.);
#515=EDGE_CURVE('',#424,#402,#171,.T.);
#516=EDGE_CURVE('',#419,#424,#172,.T.);
#517=EDGE_CURVE('',#425,#415,#173,.T.);
#518=EDGE_CURVE('',#426,#425,#174,.T.);
#519=EDGE_CURVE('',#416,#426,#175,.T.);
#520=EDGE_CURVE('',#427,#407,#176,.T.);
#521=EDGE_CURVE('',#428,#427,#177,.T.);
#522=EDGE_CURVE('',#408,#428,#178,.T.);
#523=EDGE_CURVE('',#429,#428,#179,.T.);
#524=EDGE_CURVE('',#409,#429,#180,.T.);
#525=EDGE_CURVE('',#430,#426,#181,.T.);
#526=EDGE_CURVE('',#417,#430,#182,.T.);
#527=EDGE_CURVE('',#414,#431,#183,.T.);
#528=EDGE_CURVE('',#431,#425,#184,.T.);
#529=EDGE_CURVE('',#396,#432,#185,.T.);
#530=EDGE_CURVE('',#432,#433,#186,.T.);
#531=EDGE_CURVE('',#391,#433,#187,.T.);
#532=EDGE_CURVE('',#434,#435,#188,.T.);
#533=EDGE_CURVE('',#435,#436,#189,.T.);
#534=EDGE_CURVE('',#437,#436,#190,.T.);
#535=EDGE_CURVE('',#437,#434,#191,.T.);
#536=EDGE_CURVE('',#399,#438,#192,.T.);
#537=EDGE_CURVE('',#439,#438,#193,.T.);
#538=EDGE_CURVE('',#439,#400,#194,.T.);
#539=EDGE_CURVE('',#434,#440,#195,.T.);
#540=EDGE_CURVE('',#440,#441,#196,.T.);
#541=EDGE_CURVE('',#441,#432,#197,.T.);
#542=EDGE_CURVE('',#395,#442,#198,.T.);
#543=EDGE_CURVE('',#442,#435,#199,.T.);
#544=EDGE_CURVE('',#439,#436,#200,.T.);
#545=EDGE_CURVE('',#437,#438,#201,.T.);
#546=EDGE_CURVE('',#390,#433,#202,.T.);
#547=EDGE_CURVE('',#443,#444,#203,.T.);
#548=EDGE_CURVE('',#445,#443,#204,.T.);
#549=EDGE_CURVE('',#446,#445,#205,.T.);
#550=EDGE_CURVE('',#444,#446,#206,.T.);
#551=EDGE_CURVE('',#418,#447,#207,.T.);
#552=EDGE_CURVE('',#447,#431,#208,.T.);
#553=EDGE_CURVE('',#430,#447,#209,.T.);
#554=EDGE_CURVE('',#422,#448,#210,.T.);
#555=EDGE_CURVE('',#413,#448,#211,.T.);
#556=EDGE_CURVE('',#448,#423,#212,.T.);
#557=EDGE_CURVE('',#406,#449,#213,.T.);
#558=EDGE_CURVE('',#449,#427,#214,.T.);
#559=EDGE_CURVE('',#429,#449,#215,.T.);
#560=EDGE_CURVE('',#405,#450,#216,.T.);
#561=EDGE_CURVE('',#450,#424,#217,.T.);
#562=EDGE_CURVE('',#420,#450,#218,.T.);
#563=EDGE_CURVE('',#451,#452,#219,.T.);
#564=EDGE_CURVE('',#451,#453,#220,.T.);
#565=EDGE_CURVE('',#453,#454,#221,.T.);
#566=EDGE_CURVE('',#452,#454,#222,.T.);
#567=EDGE_CURVE('',#455,#451,#223,.T.);
#568=EDGE_CURVE('',#455,#456,#224,.T.);
#569=EDGE_CURVE('',#456,#453,#225,.T.);
#570=EDGE_CURVE('',#457,#455,#226,.T.);
#571=EDGE_CURVE('',#457,#458,#227,.T.);
#572=EDGE_CURVE('',#458,#456,#228,.T.);
#573=EDGE_CURVE('',#459,#457,#229,.T.);
#574=EDGE_CURVE('',#459,#460,#230,.T.);
#575=EDGE_CURVE('',#460,#458,#231,.T.);
#576=EDGE_CURVE('',#461,#459,#232,.T.);
#577=EDGE_CURVE('',#461,#462,#233,.T.);
#578=EDGE_CURVE('',#462,#460,#234,.T.);
#579=EDGE_CURVE('',#452,#461,#235,.T.);
#580=EDGE_CURVE('',#454,#462,#236,.T.);
#581=EDGE_CURVE('',#463,#443,#237,.T.);
#582=EDGE_CURVE('',#463,#464,#238,.T.);
#583=EDGE_CURVE('',#464,#445,#239,.T.);
#584=EDGE_CURVE('',#465,#463,#240,.T.);
#585=EDGE_CURVE('',#465,#466,#241,.T.);
#586=EDGE_CURVE('',#466,#464,#242,.T.);
#587=EDGE_CURVE('',#444,#465,#243,.T.);
#588=EDGE_CURVE('',#446,#466,#244,.T.);
#589=EDGE_CURVE('',#440,#467,#245,.T.);
#590=EDGE_CURVE('',#467,#468,#246,.T.);
#591=EDGE_CURVE('',#441,#468,#247,.T.);
#592=EDGE_CURVE('',#398,#469,#248,.T.);
#593=EDGE_CURVE('',#469,#467,#249,.T.);
#594=EDGE_CURVE('',#397,#470,#250,.T.);
#595=EDGE_CURVE('',#470,#469,#251,.T.);
#596=EDGE_CURVE('',#468,#470,#252,.T.);
#597=EDGE_CURVE('',#393,#471,#253,.T.);
#598=EDGE_CURVE('',#471,#401,#254,.T.);
#599=EDGE_CURVE('',#472,#442,#255,.T.);
#600=EDGE_CURVE('',#471,#472,#256,.T.);
#601=EDGE_CURVE('',#472,#394,#257,.T.);
#602=ORIENTED_EDGE('',*,*,#473,.F.);
#603=ORIENTED_EDGE('',*,*,#474,.F.);
#604=ORIENTED_EDGE('',*,*,#475,.F.);
#605=ORIENTED_EDGE('',*,*,#476,.F.);
#606=ORIENTED_EDGE('',*,*,#477,.T.);
#607=ORIENTED_EDGE('',*,*,#474,.T.);
#608=ORIENTED_EDGE('',*,*,#478,.F.);
#609=ORIENTED_EDGE('',*,*,#479,.F.);
#610=ORIENTED_EDGE('',*,*,#480,.F.);
#611=ORIENTED_EDGE('',*,*,#481,.T.);
#612=ORIENTED_EDGE('',*,*,#482,.F.);
#613=ORIENTED_EDGE('',*,*,#483,.F.);
#614=ORIENTED_EDGE('',*,*,#473,.T.);
#615=ORIENTED_EDGE('',*,*,#484,.T.);
#616=ORIENTED_EDGE('',*,*,#485,.T.);
#617=ORIENTED_EDGE('',*,*,#486,.T.);
#618=ORIENTED_EDGE('',*,*,#487,.F.);
#619=ORIENTED_EDGE('',*,*,#488,.T.);
#620=ORIENTED_EDGE('',*,*,#489,.T.);
#621=ORIENTED_EDGE('',*,*,#478,.T.);
#622=ORIENTED_EDGE('',*,*,#490,.T.);
#623=ORIENTED_EDGE('',*,*,#491,.T.);
#624=ORIENTED_EDGE('',*,*,#492,.T.);
#625=ORIENTED_EDGE('',*,*,#493,.T.);
#626=ORIENTED_EDGE('',*,*,#494,.T.);
#627=ORIENTED_EDGE('',*,*,#495,.T.);
#628=ORIENTED_EDGE('',*,*,#496,.T.);
#629=ORIENTED_EDGE('',*,*,#497,.T.);
#630=ORIENTED_EDGE('',*,*,#498,.T.);
#631=ORIENTED_EDGE('',*,*,#499,.T.);
#632=ORIENTED_EDGE('',*,*,#500,.T.);
#633=ORIENTED_EDGE('',*,*,#501,.T.);
#634=ORIENTED_EDGE('',*,*,#502,.T.);
#635=ORIENTED_EDGE('',*,*,#503,.T.);
#636=ORIENTED_EDGE('',*,*,#504,.T.);
#637=ORIENTED_EDGE('',*,*,#505,.T.);
#638=ORIENTED_EDGE('',*,*,#506,.T.);
#639=ORIENTED_EDGE('',*,*,#491,.F.);
#640=ORIENTED_EDGE('',*,*,#507,.F.);
#641=ORIENTED_EDGE('',*,*,#508,.F.);
#642=ORIENTED_EDGE('',*,*,#509,.F.);
#643=ORIENTED_EDGE('',*,*,#499,.F.);
#644=ORIENTED_EDGE('',*,*,#510,.F.);
#645=ORIENTED_EDGE('',*,*,#511,.F.);
#646=ORIENTED_EDGE('',*,*,#512,.F.);
#647=ORIENTED_EDGE('',*,*,#498,.F.);
#648=ORIENTED_EDGE('',*,*,#513,.F.);
#649=ORIENTED_EDGE('',*,*,#514,.F.);
#650=ORIENTED_EDGE('',*,*,#510,.T.);
#651=ORIENTED_EDGE('',*,*,#490,.F.);
#652=ORIENTED_EDGE('',*,*,#515,.F.);
#653=ORIENTED_EDGE('',*,*,#516,.F.);
#654=ORIENTED_EDGE('',*,*,#507,.T.);
#655=ORIENTED_EDGE('',*,*,#503,.F.);
#656=ORIENTED_EDGE('',*,*,#517,.F.);
#657=ORIENTED_EDGE('',*,*,#518,.F.);
#658=ORIENTED_EDGE('',*,*,#519,.F.);
#659=ORIENTED_EDGE('',*,*,#495,.F.);
#660=ORIENTED_EDGE('',*,*,#520,.F.);
#661=ORIENTED_EDGE('',*,*,#521,.F.);
#662=ORIENTED_EDGE('',*,*,#522,.F.);
#663=ORIENTED_EDGE('',*,*,#496,.F.);
#664=ORIENTED_EDGE('',*,*,#522,.T.);
#665=ORIENTED_EDGE('',*,*,#523,.F.);
#666=ORIENTED_EDGE('',*,*,#524,.F.);
#667=ORIENTED_EDGE('',*,*,#504,.F.);
#668=ORIENTED_EDGE('',*,*,#519,.T.);
#669=ORIENTED_EDGE('',*,*,#525,.F.);
#670=ORIENTED_EDGE('',*,*,#526,.F.);
#671=ORIENTED_EDGE('',*,*,#527,.T.);
#672=ORIENTED_EDGE('',*,*,#528,.T.);
#673=ORIENTED_EDGE('',*,*,#517,.T.);
#674=ORIENTED_EDGE('',*,*,#502,.F.);
#675=ORIENTED_EDGE('',*,*,#529,.T.);
#676=ORIENTED_EDGE('',*,*,#530,.T.);
#677=ORIENTED_EDGE('',*,*,#531,.F.);
#678=ORIENTED_EDGE('',*,*,#483,.T.);
#679=ORIENTED_EDGE('',*,*,#532,.T.);
#680=ORIENTED_EDGE('',*,*,#533,.T.);
#681=ORIENTED_EDGE('',*,*,#534,.F.);
#682=ORIENTED_EDGE('',*,*,#535,.T.);
#683=ORIENTED_EDGE('',*,*,#487,.T.);
#684=ORIENTED_EDGE('',*,*,#536,.T.);
#685=ORIENTED_EDGE('',*,*,#537,.F.);
#686=ORIENTED_EDGE('',*,*,#538,.T.);
#687=ORIENTED_EDGE('',*,*,#539,.T.);
#688=ORIENTED_EDGE('',*,*,#540,.T.);
#689=ORIENTED_EDGE('',*,*,#541,.T.);
#690=ORIENTED_EDGE('',*,*,#529,.F.);
#691=ORIENTED_EDGE('',*,*,#482,.T.);
#692=ORIENTED_EDGE('',*,*,#542,.T.);
#693=ORIENTED_EDGE('',*,*,#543,.T.);
#694=ORIENTED_EDGE('',*,*,#532,.F.);
#695=ORIENTED_EDGE('',*,*,#534,.T.);
#696=ORIENTED_EDGE('',*,*,#544,.F.);
#697=ORIENTED_EDGE('',*,*,#537,.T.);
#698=ORIENTED_EDGE('',*,*,#545,.F.);
#699=ORIENTED_EDGE('',*,*,#531,.T.);
#700=ORIENTED_EDGE('',*,*,#546,.F.);
#701=ORIENTED_EDGE('',*,*,#475,.T.);
#702=ORIENTED_EDGE('',*,*,#477,.F.);
#703=ORIENTED_EDGE('',*,*,#547,.F.);
#704=ORIENTED_EDGE('',*,*,#548,.F.);
#705=ORIENTED_EDGE('',*,*,#549,.F.);
#706=ORIENTED_EDGE('',*,*,#550,.F.);
#707=ORIENTED_EDGE('',*,*,#506,.F.);
#708=ORIENTED_EDGE('',*,*,#551,.T.);
#709=ORIENTED_EDGE('',*,*,#552,.T.);
#710=ORIENTED_EDGE('',*,*,#527,.F.);
#711=ORIENTED_EDGE('',*,*,#505,.F.);
#712=ORIENTED_EDGE('',*,*,#526,.T.);
#713=ORIENTED_EDGE('',*,*,#553,.T.);
#714=ORIENTED_EDGE('',*,*,#551,.F.);
#715=ORIENTED_EDGE('',*,*,#528,.F.);
#716=ORIENTED_EDGE('',*,*,#552,.F.);
#717=ORIENTED_EDGE('',*,*,#553,.F.);
#718=ORIENTED_EDGE('',*,*,#525,.T.);
#719=ORIENTED_EDGE('',*,*,#518,.T.);
#720=ORIENTED_EDGE('',*,*,#500,.F.);
#721=ORIENTED_EDGE('',*,*,#512,.T.);
#722=ORIENTED_EDGE('',*,*,#554,.T.);
#723=ORIENTED_EDGE('',*,*,#555,.F.);
#724=ORIENTED_EDGE('',*,*,#501,.F.);
#725=ORIENTED_EDGE('',*,*,#555,.T.);
#726=ORIENTED_EDGE('',*,*,#556,.T.);
#727=ORIENTED_EDGE('',*,*,#513,.T.);
#728=ORIENTED_EDGE('',*,*,#556,.F.);
#729=ORIENTED_EDGE('',*,*,#554,.F.);
#730=ORIENTED_EDGE('',*,*,#511,.T.);
#731=ORIENTED_EDGE('',*,*,#514,.T.);
#732=ORIENTED_EDGE('',*,*,#494,.F.);
#733=ORIENTED_EDGE('',*,*,#557,.T.);
#734=ORIENTED_EDGE('',*,*,#558,.T.);
#735=ORIENTED_EDGE('',*,*,#520,.T.);
#736=ORIENTED_EDGE('',*,*,#497,.F.);
#737=ORIENTED_EDGE('',*,*,#524,.T.);
#738=ORIENTED_EDGE('',*,*,#559,.T.);
#739=ORIENTED_EDGE('',*,*,#557,.F.);
#740=ORIENTED_EDGE('',*,*,#558,.F.);
#741=ORIENTED_EDGE('',*,*,#559,.F.);
#742=ORIENTED_EDGE('',*,*,#523,.T.);
#743=ORIENTED_EDGE('',*,*,#521,.T.);
#744=ORIENTED_EDGE('',*,*,#493,.F.);
#745=ORIENTED_EDGE('',*,*,#560,.T.);
#746=ORIENTED_EDGE('',*,*,#561,.T.);
#747=ORIENTED_EDGE('',*,*,#515,.T.);
#748=ORIENTED_EDGE('',*,*,#492,.F.);
#749=ORIENTED_EDGE('',*,*,#509,.T.);
#750=ORIENTED_EDGE('',*,*,#562,.T.);
#751=ORIENTED_EDGE('',*,*,#560,.F.);
#752=ORIENTED_EDGE('',*,*,#516,.T.);
#753=ORIENTED_EDGE('',*,*,#561,.F.);
#754=ORIENTED_EDGE('',*,*,#562,.F.);
#755=ORIENTED_EDGE('',*,*,#508,.T.);
#756=ORIENTED_EDGE('',*,*,#563,.F.);
#757=ORIENTED_EDGE('',*,*,#564,.T.);
#758=ORIENTED_EDGE('',*,*,#565,.T.);
#759=ORIENTED_EDGE('',*,*,#566,.F.);
#760=ORIENTED_EDGE('',*,*,#567,.F.);
#761=ORIENTED_EDGE('',*,*,#568,.T.);
#762=ORIENTED_EDGE('',*,*,#569,.T.);
#763=ORIENTED_EDGE('',*,*,#564,.F.);
#764=ORIENTED_EDGE('',*,*,#570,.F.);
#765=ORIENTED_EDGE('',*,*,#571,.T.);
#766=ORIENTED_EDGE('',*,*,#572,.T.);
#767=ORIENTED_EDGE('',*,*,#568,.F.);
#768=ORIENTED_EDGE('',*,*,#573,.F.);
#769=ORIENTED_EDGE('',*,*,#574,.T.);
#770=ORIENTED_EDGE('',*,*,#575,.T.);
#771=ORIENTED_EDGE('',*,*,#571,.F.);
#772=ORIENTED_EDGE('',*,*,#576,.F.);
#773=ORIENTED_EDGE('',*,*,#577,.T.);
#774=ORIENTED_EDGE('',*,*,#578,.T.);
#775=ORIENTED_EDGE('',*,*,#574,.F.);
#776=ORIENTED_EDGE('',*,*,#579,.F.);
#777=ORIENTED_EDGE('',*,*,#566,.T.);
#778=ORIENTED_EDGE('',*,*,#580,.T.);
#779=ORIENTED_EDGE('',*,*,#577,.F.);
#780=ORIENTED_EDGE('',*,*,#580,.F.);
#781=ORIENTED_EDGE('',*,*,#565,.F.);
#782=ORIENTED_EDGE('',*,*,#569,.F.);
#783=ORIENTED_EDGE('',*,*,#572,.F.);
#784=ORIENTED_EDGE('',*,*,#575,.F.);
#785=ORIENTED_EDGE('',*,*,#578,.F.);
#786=ORIENTED_EDGE('',*,*,#581,.F.);
#787=ORIENTED_EDGE('',*,*,#582,.T.);
#788=ORIENTED_EDGE('',*,*,#583,.T.);
#789=ORIENTED_EDGE('',*,*,#548,.T.);
#790=ORIENTED_EDGE('',*,*,#584,.F.);
#791=ORIENTED_EDGE('',*,*,#585,.T.);
#792=ORIENTED_EDGE('',*,*,#586,.T.);
#793=ORIENTED_EDGE('',*,*,#582,.F.);
#794=ORIENTED_EDGE('',*,*,#587,.F.);
#795=ORIENTED_EDGE('',*,*,#550,.T.);
#796=ORIENTED_EDGE('',*,*,#588,.T.);
#797=ORIENTED_EDGE('',*,*,#585,.F.);
#798=ORIENTED_EDGE('',*,*,#583,.F.);
#799=ORIENTED_EDGE('',*,*,#586,.F.);
#800=ORIENTED_EDGE('',*,*,#588,.F.);
#801=ORIENTED_EDGE('',*,*,#549,.T.);
#802=ORIENTED_EDGE('',*,*,#540,.F.);
#803=ORIENTED_EDGE('',*,*,#589,.T.);
#804=ORIENTED_EDGE('',*,*,#590,.T.);
#805=ORIENTED_EDGE('',*,*,#591,.F.);
#806=ORIENTED_EDGE('',*,*,#486,.F.);
#807=ORIENTED_EDGE('',*,*,#592,.T.);
#808=ORIENTED_EDGE('',*,*,#593,.T.);
#809=ORIENTED_EDGE('',*,*,#589,.F.);
#810=ORIENTED_EDGE('',*,*,#539,.F.);
#811=ORIENTED_EDGE('',*,*,#535,.F.);
#812=ORIENTED_EDGE('',*,*,#545,.T.);
#813=ORIENTED_EDGE('',*,*,#536,.F.);
#814=ORIENTED_EDGE('',*,*,#485,.F.);
#815=ORIENTED_EDGE('',*,*,#594,.T.);
#816=ORIENTED_EDGE('',*,*,#595,.T.);
#817=ORIENTED_EDGE('',*,*,#592,.F.);
#818=ORIENTED_EDGE('',*,*,#546,.T.);
#819=ORIENTED_EDGE('',*,*,#530,.F.);
#820=ORIENTED_EDGE('',*,*,#541,.F.);
#821=ORIENTED_EDGE('',*,*,#591,.T.);
#822=ORIENTED_EDGE('',*,*,#596,.T.);
#823=ORIENTED_EDGE('',*,*,#594,.F.);
#824=ORIENTED_EDGE('',*,*,#484,.F.);
#825=ORIENTED_EDGE('',*,*,#476,.T.);
#826=ORIENTED_EDGE('',*,*,#596,.F.);
#827=ORIENTED_EDGE('',*,*,#590,.F.);
#828=ORIENTED_EDGE('',*,*,#593,.F.);
#829=ORIENTED_EDGE('',*,*,#595,.F.);
#830=ORIENTED_EDGE('',*,*,#587,.T.);
#831=ORIENTED_EDGE('',*,*,#584,.T.);
#832=ORIENTED_EDGE('',*,*,#581,.T.);
#833=ORIENTED_EDGE('',*,*,#547,.T.);
#834=ORIENTED_EDGE('',*,*,#563,.T.);
#835=ORIENTED_EDGE('',*,*,#579,.T.);
#836=ORIENTED_EDGE('',*,*,#576,.T.);
#837=ORIENTED_EDGE('',*,*,#573,.T.);
#838=ORIENTED_EDGE('',*,*,#570,.T.);
#839=ORIENTED_EDGE('',*,*,#567,.T.);
#840=ORIENTED_EDGE('',*,*,#597,.F.);
#841=ORIENTED_EDGE('',*,*,#479,.T.);
#842=ORIENTED_EDGE('',*,*,#489,.F.);
#843=ORIENTED_EDGE('',*,*,#598,.F.);
#844=ORIENTED_EDGE('',*,*,#543,.F.);
#845=ORIENTED_EDGE('',*,*,#599,.F.);
#846=ORIENTED_EDGE('',*,*,#600,.F.);
#847=ORIENTED_EDGE('',*,*,#598,.T.);
#848=ORIENTED_EDGE('',*,*,#488,.F.);
#849=ORIENTED_EDGE('',*,*,#538,.F.);
#850=ORIENTED_EDGE('',*,*,#544,.T.);
#851=ORIENTED_EDGE('',*,*,#533,.F.);
#852=ORIENTED_EDGE('',*,*,#601,.F.);
#853=ORIENTED_EDGE('',*,*,#599,.T.);
#854=ORIENTED_EDGE('',*,*,#542,.F.);
#855=ORIENTED_EDGE('',*,*,#481,.F.);
#856=ORIENTED_EDGE('',*,*,#480,.T.);
#857=ORIENTED_EDGE('',*,*,#597,.T.);
#858=ORIENTED_EDGE('',*,*,#600,.T.);
#859=ORIENTED_EDGE('',*,*,#601,.T.);
#860=PLANE('',#976);
#861=PLANE('',#977);
#862=PLANE('',#978);
#863=PLANE('',#979);
#864=PLANE('',#980);
#865=PLANE('',#981);
#866=PLANE('',#982);
#867=PLANE('',#983);
#868=PLANE('',#984);
#869=PLANE('',#985);
#870=PLANE('',#986);
#871=PLANE('',#987);
#872=PLANE('',#988);
#873=PLANE('',#989);
#874=PLANE('',#990);
#875=PLANE('',#991);
#876=PLANE('',#992);
#877=PLANE('',#993);
#878=PLANE('',#994);
#879=PLANE('',#995);
#880=PLANE('',#996);
#881=PLANE('',#997);
#882=PLANE('',#998);
#883=PLANE('',#999);
#884=PLANE('',#1000);
#885=PLANE('',#1001);
#886=PLANE('',#1002);
#887=PLANE('',#1003);
#888=PLANE('',#1004);
#889=PLANE('',#1005);
#890=PLANE('',#1006);
#891=PLANE('',#1007);
#892=PLANE('',#1008);
#893=PLANE('',#1009);
#894=PLANE('',#1010);
#895=PLANE('',#1011);
#896=PLANE('',#1012);
#897=PLANE('',#1013);
#898=PLANE('',#1014);
#899=PLANE('',#1015);
#900=PLANE('',#1016);
#901=PLANE('',#1017);
#902=PLANE('',#1018);
#903=PLANE('',#1019);
#904=PLANE('',#1020);
#905=PLANE('',#1021);
#906=PLANE('',#1022);
#907=PLANE('',#1023);
#908=PLANE('',#1024);
#909=PLANE('',#1025);
#910=PLANE('',#1026);
#911=ADVANCED_FACE('',(#21),#860,.F.);
#912=ADVANCED_FACE('',(#22),#861,.T.);
#913=ADVANCED_FACE('',(#23,#15,#16,#17,#18),#862,.T.);
#914=ADVANCED_FACE('',(#24),#863,.F.);
#915=ADVANCED_FACE('',(#25),#864,.F.);
#916=ADVANCED_FACE('',(#26),#865,.F.);
#917=ADVANCED_FACE('',(#27),#866,.F.);
#918=ADVANCED_FACE('',(#28),#867,.F.);
#919=ADVANCED_FACE('',(#29),#868,.F.);
#920=ADVANCED_FACE('',(#30),#869,.F.);
#921=ADVANCED_FACE('',(#31),#870,.F.);
#922=ADVANCED_FACE('',(#32),#871,.F.);
#923=ADVANCED_FACE('',(#33),#872,.T.);
#924=ADVANCED_FACE('',(#34),#873,.T.);
#925=ADVANCED_FACE('',(#35),#874,.T.);
#926=ADVANCED_FACE('',(#36),#875,.T.);
#927=ADVANCED_FACE('',(#37),#876,.F.);
#928=ADVANCED_FACE('',(#38),#877,.F.);
#929=ADVANCED_FACE('',(#39),#878,.F.);
#930=ADVANCED_FACE('',(#40),#879,.F.);
#931=ADVANCED_FACE('',(#41),#880,.F.);
#932=ADVANCED_FACE('',(#42),#881,.F.);
#933=ADVANCED_FACE('',(#43),#882,.F.);
#934=ADVANCED_FACE('',(#44),#883,.F.);
#935=ADVANCED_FACE('',(#45),#884,.F.);
#936=ADVANCED_FACE('',(#46),#885,.F.);
#937=ADVANCED_FACE('',(#47),#886,.F.);
#938=ADVANCED_FACE('',(#48),#887,.F.);
#939=ADVANCED_FACE('',(#49),#888,.F.);
#940=ADVANCED_FACE('',(#50),#889,.F.);
#941=ADVANCED_FACE('',(#51),#890,.F.);
#942=ADVANCED_FACE('',(#52),#891,.F.);
#943=ADVANCED_FACE('',(#53),#892,.F.);
#944=ADVANCED_FACE('',(#54),#893,.F.);
#945=ADVANCED_FACE('',(#55),#894,.F.);
#946=ADVANCED_FACE('',(#56),#895,.F.);
#947=ADVANCED_FACE('',(#57),#896,.F.);
#948=ADVANCED_FACE('',(#58),#897,.F.);
#949=ADVANCED_FACE('',(#59),#898,.F.);
#950=ADVANCED_FACE('',(#60),#899,.F.);
#951=ADVANCED_FACE('',(#61),#900,.F.);
#952=ADVANCED_FACE('',(#62),#901,.F.);
#953=ADVANCED_FACE('',(#63),#902,.F.);
#954=ADVANCED_FACE('',(#64),#903,.F.);
#955=ADVANCED_FACE('',(#65),#904,.F.);
#956=ADVANCED_FACE('',(#66),#905,.F.);
#957=ADVANCED_FACE('',(#67,#19,#20),#906,.F.);
#958=ADVANCED_FACE('',(#68),#907,.T.);
#959=ADVANCED_FACE('',(#69),#908,.T.);
#960=ADVANCED_FACE('',(#70),#909,.T.);
#961=ADVANCED_FACE('',(#71),#910,.F.);
#962=CLOSED_SHELL('',(#911,#912,#913,#914,#915,#916,#917,#918,#919,#920,
#921,#922,#923,#924,#925,#926,#927,#928,#929,#930,#931,#932,#933,#934,#935,
#936,#937,#938,#939,#940,#941,#942,#943,#944,#945,#946,#947,#948,#949,#950,
#951,#952,#953,#954,#955,#956,#957,#958,#959,#960,#961));
#963=DERIVED_UNIT_ELEMENT(#965,1.);
#964=DERIVED_UNIT_ELEMENT(#1532,-3.);
#965=(
MASS_UNIT()
NAMED_UNIT(*)
SI_UNIT(.KILO.,.GRAM.)
);
#966=DERIVED_UNIT((#963,#964));
#967=MEASURE_REPRESENTATION_ITEM('density measure',
POSITIVE_RATIO_MEASURE(7850.),#966);
#968=PROPERTY_DEFINITION_REPRESENTATION(#973,#970);
#969=PROPERTY_DEFINITION_REPRESENTATION(#974,#971);
#970=REPRESENTATION('material name',(#972),#1529);
#971=REPRESENTATION('density',(#967),#1529);
#972=DESCRIPTIVE_REPRESENTATION_ITEM('Acero','Acero');
#973=PROPERTY_DEFINITION('material property','material name',#1539);
#974=PROPERTY_DEFINITION('material property','density of part',#1539);
#975=AXIS2_PLACEMENT_3D('',#1260,#1027,#1028);
#976=AXIS2_PLACEMENT_3D('',#1261,#1029,#1030);
#977=AXIS2_PLACEMENT_3D('',#1270,#1035,#1036);
#978=AXIS2_PLACEMENT_3D('',#1284,#1044,#1045);
#979=AXIS2_PLACEMENT_3D('',#1330,#1069,#1070);
#980=AXIS2_PLACEMENT_3D('',#1336,#1074,#1075);
#981=AXIS2_PLACEMENT_3D('',#1342,#1079,#1080);
#982=AXIS2_PLACEMENT_3D('',#1346,#1083,#1084);
#983=AXIS2_PLACEMENT_3D('',#1350,#1087,#1088);
#984=AXIS2_PLACEMENT_3D('',#1356,#1092,#1093);
#985=AXIS2_PLACEMENT_3D('',#1362,#1097,#1098);
#986=AXIS2_PLACEMENT_3D('',#1366,#1101,#1102);
#987=AXIS2_PLACEMENT_3D('',#1370,#1105,#1106);
#988=AXIS2_PLACEMENT_3D('',#1374,#1109,#1110);
#989=AXIS2_PLACEMENT_3D('',#1380,#1114,#1115);
#990=AXIS2_PLACEMENT_3D('',#1389,#1120,#1121);
#991=AXIS2_PLACEMENT_3D('',#1395,#1125,#1126);
#992=AXIS2_PLACEMENT_3D('',#1404,#1132,#1133);
#993=AXIS2_PLACEMENT_3D('',#1407,#1136,#1137);
#994=AXIS2_PLACEMENT_3D('',#1409,#1139,#1140);
#995=AXIS2_PLACEMENT_3D('',#1418,#1145,#1146);
#996=AXIS2_PLACEMENT_3D('',#1422,#1149,#1150);
#997=AXIS2_PLACEMENT_3D('',#1424,#1152,#1153);
#998=AXIS2_PLACEMENT_3D('',#1425,#1154,#1155);
#999=AXIS2_PLACEMENT_3D('',#1429,#1158,#1159);
#1000=AXIS2_PLACEMENT_3D('',#1431,#1161,#1162);
#1001=AXIS2_PLACEMENT_3D('',#1432,#1163,#1164);
#1002=AXIS2_PLACEMENT_3D('',#1436,#1167,#1168);
#1003=AXIS2_PLACEMENT_3D('',#1438,#1170,#1171);
#1004=AXIS2_PLACEMENT_3D('',#1439,#1172,#1173);
#1005=AXIS2_PLACEMENT_3D('',#1443,#1176,#1177);
#1006=AXIS2_PLACEMENT_3D('',#1445,#1179,#1180);
#1007=AXIS2_PLACEMENT_3D('',#1446,#1181,#1182);
#1008=AXIS2_PLACEMENT_3D('',#1455,#1187,#1188);
#1009=AXIS2_PLACEMENT_3D('',#1461,#1192,#1193);
#1010=AXIS2_PLACEMENT_3D('',#1467,#1197,#1198);
#1011=AXIS2_PLACEMENT_3D('',#1473,#1202,#1203);
#1012=AXIS2_PLACEMENT_3D('',#1479,#1207,#1208);
#1013=AXIS2_PLACEMENT_3D('',#1482,#1211,#1212);
#1014=AXIS2_PLACEMENT_3D('',#1483,#1213,#1214);
#1015=AXIS2_PLACEMENT_3D('',#1489,#1218,#1219);
#1016=AXIS2_PLACEMENT_3D('',#1495,#1223,#1224);
#1017=AXIS2_PLACEMENT_3D('',#1498,#1227,#1228);
#1018=AXIS2_PLACEMENT_3D('',#1499,#1229,#1230);
#1019=AXIS2_PLACEMENT_3D('',#1505,#1234,#1235);
#1020=AXIS2_PLACEMENT_3D('',#1509,#1238,#1239);
#1021=AXIS2_PLACEMENT_3D('',#1513,#1242,#1243);
#1022=AXIS2_PLACEMENT_3D('',#1515,#1245,#1246);
#1023=AXIS2_PLACEMENT_3D('',#1516,#1247,#1248);
#1024=AXIS2_PLACEMENT_3D('',#1520,#1251,#1252);
#1025=AXIS2_PLACEMENT_3D('',#1524,#1255,#1256);
#1026=AXIS2_PLACEMENT_3D('',#1526,#1258,#1259);
#1027=DIRECTION('axis',(0.,0.,1.));
#1028=DIRECTION('refdir',(1.,0.,0.));
#1029=DIRECTION('center_axis',(-1.,0.,0.));
#1030=DIRECTION('ref_axis',(0.,0.,1.));
#1031=DIRECTION('',(0.,1.,0.));
#1032=DIRECTION('',(0.,0.,1.));
#1033=DIRECTION('',(0.,-1.,0.));
#1034=DIRECTION('',(0.,0.,-1.));
#1035=DIRECTION('center_axis',(0.,-1.,0.));
#1036=DIRECTION('ref_axis',(1.,0.,0.));
#1037=DIRECTION('',(-1.,0.,0.));
#1038=DIRECTION('',(1.,0.,0.));
#1039=DIRECTION('',(0.,0.,1.));
#1040=DIRECTION('',(-1.,0.,0.));
#1041=DIRECTION('',(0.,0.,1.));
#1042=DIRECTION('',(1.,0.,0.));
#1043=DIRECTION('',(0.,0.,1.));
#1044=DIRECTION('center_axis',(0.,0.,1.));
#1045=DIRECTION('ref_axis',(1.,0.,0.));
#1046=DIRECTION('',(-1.,0.,0.));
#1047=DIRECTION('',(0.,1.,0.));
#1048=DIRECTION('',(1.,0.,0.));
#1049=DIRECTION('',(0.,-1.,0.));
#1050=DIRECTION('',(-1.,0.,0.));
#1051=DIRECTION('',(0.,-1.,0.));
#1052=DIRECTION('',(0.,1.,0.));
#1053=DIRECTION('',(1.,0.,0.));
#1054=DIRECTION('',(0.,-1.,0.));
#1055=DIRECTION('',(-1.,0.,0.));
#1056=DIRECTION('',(-1.,0.,0.));
#1057=DIRECTION('',(0.,1.,0.));
#1058=DIRECTION('',(1.,0.,0.));
#1059=DIRECTION('',(0.,-1.,0.));
#1060=DIRECTION('',(0.,1.,0.));
#1061=DIRECTION('',(1.,0.,0.));
#1062=DIRECTION('',(0.,-1.,0.));
#1063=DIRECTION('',(-1.,0.,0.));
#1064=DIRECTION('',(-1.,0.,0.));
#1065=DIRECTION('',(0.,1.,0.));
#1066=DIRECTION('',(1.,0.,0.));
#1067=DIRECTION('',(0.,-1.,0.));
#1068=DIRECTION('',(-1.,3.72529007641731E-9,0.));
#1069=DIRECTION('center_axis',(0.,1.,0.));
#1070=DIRECTION('ref_axis',(0.,0.,1.));
#1071=DIRECTION('',(0.,0.,1.));
#1072=DIRECTION('',(-1.,0.,0.));
#1073=DIRECTION('',(0.,0.,-1.));
#1074=DIRECTION('center_axis',(0.,1.,0.));
#1075=DIRECTION('ref_axis',(0.,0.,1.));
#1076=DIRECTION('',(0.,0.,1.));
#1077=DIRECTION('',(-1.,0.,0.));
#1078=DIRECTION('',(0.,0.,-1.));
#1079=DIRECTION('center_axis',(-1.,0.,0.));
#1080=DIRECTION('ref_axis',(0.,0.,1.));
#1081=DIRECTION('',(0.,0.,1.));
#1082=DIRECTION('',(0.,-1.,0.));
#1083=DIRECTION('center_axis',(-1.,0.,0.));
#1084=DIRECTION('ref_axis',(0.,0.,1.));
#1085=DIRECTION('',(0.,0.,1.));
#1086=DIRECTION('',(0.,-1.,0.));
#1087=DIRECTION('center_axis',(-1.,0.,0.));
#1088=DIRECTION('ref_axis',(0.,0.,1.));
#1089=DIRECTION('',(0.,0.,1.));
#1090=DIRECTION('',(0.,-1.,0.));
#1091=DIRECTION('',(0.,0.,-1.));
#1092=DIRECTION('center_axis',(-1.,0.,0.));
#1093=DIRECTION('ref_axis',(0.,0.,1.));
#1094=DIRECTION('',(0.,0.,1.));
#1095=DIRECTION('',(0.,-1.,0.));
#1096=DIRECTION('',(0.,0.,-1.));
#1097=DIRECTION('center_axis',(0.,1.,0.));
#1098=DIRECTION('ref_axis',(0.,0.,1.));
#1099=DIRECTION('',(-1.,0.,0.));
#1100=DIRECTION('',(0.,0.,-1.));
#1101=DIRECTION('center_axis',(0.,1.,0.));
#1102=DIRECTION('ref_axis',(0.,0.,1.));
#1103=DIRECTION('',(-1.,0.,0.));
#1104=DIRECTION('',(0.,0.,-1.));
#1105=DIRECTION('center_axis',(0.,-1.,0.));
#1106=DIRECTION('ref_axis',(0.,0.,1.));
#1107=DIRECTION('',(0.,0.,-1.));
#1108=DIRECTION('',(-1.,0.,0.));
#1109=DIRECTION('center_axis',(-1.,0.,0.));
#1110=DIRECTION('ref_axis',(0.,0.,1.));
#1111=DIRECTION('',(0.,1.,0.));
#1112=DIRECTION('',(0.,0.,-1.));
#1113=DIRECTION('',(0.,1.,0.));
#1114=DIRECTION('center_axis',(-1.,0.,0.));
#1115=DIRECTION('ref_axis',(0.,0.,1.));
#1116=DIRECTION('',(0.,1.,0.));
#1117=DIRECTION('',(0.,0.,-1.));
#1118=DIRECTION('',(0.,1.,0.));
#1119=DIRECTION('',(0.,0.,1.));
#1120=DIRECTION('center_axis',(1.,0.,0.));
#1121=DIRECTION('ref_axis',(0.,0.,-1.));
#1122=DIRECTION('',(0.,0.,-1.));
#1123=DIRECTION('',(0.,-1.,0.));
#1124=DIRECTION('',(0.,0.,1.));
#1125=DIRECTION('center_axis',(0.,0.,1.));
#1126=DIRECTION('ref_axis',(1.,0.,0.));
#1127=DIRECTION('',(1.,0.,0.));
#1128=DIRECTION('',(0.,-1.,0.));
#1129=DIRECTION('',(-1.,0.,0.));
#1130=DIRECTION('',(0.,1.,0.));
#1131=DIRECTION('',(-1.,0.,0.));
#1132=DIRECTION('center_axis',(0.,0.,-1.));
#1133=DIRECTION('ref_axis',(-1.,0.,0.));
#1134=DIRECTION('',(1.,0.,0.));
#1135=DIRECTION('',(-1.,0.,0.));
#1136=DIRECTION('center_axis',(0.,0.,-1.));
#1137=DIRECTION('ref_axis',(-1.,0.,0.));
#1138=DIRECTION('',(1.,0.,0.));
#1139=DIRECTION('center_axis',(0.,-1.,0.));
#1140=DIRECTION('ref_axis',(0.,0.,-1.));
#1141=DIRECTION('',(-1.,0.,0.));
#1142=DIRECTION('',(0.,0.,1.));
#1143=DIRECTION('',(1.,0.,0.));
#1144=DIRECTION('',(0.,0.,-1.));
#1145=DIRECTION('center_axis',(-3.72529007641731E-9,-1.,0.));
#1146=DIRECTION('ref_axis',(-1.,3.72529007641731E-9,0.));
#1147=DIRECTION('',(0.,0.,-1.));
#1148=DIRECTION('',(-1.,3.72529007641731E-9,0.));
#1149=DIRECTION('center_axis',(1.,0.,0.));
#1150=DIRECTION('ref_axis',(0.,-1.,0.));
#1151=DIRECTION('',(0.,-1.,0.));
#1152=DIRECTION('center_axis',(0.,0.,-1.));
#1153=DIRECTION('ref_axis',(-1.,0.,0.));
#1154=DIRECTION('center_axis',(1.,0.,0.));
#1155=DIRECTION('ref_axis',(0.,-1.,0.));
#1156=DIRECTION('',(0.,-1.,0.));
#1157=DIRECTION('',(0.,0.,-1.));
#1158=DIRECTION('center_axis',(0.,-1.,0.));
#1159=DIRECTION('ref_axis',(-1.,0.,0.));
#1160=DIRECTION('',(-1.,0.,0.));
#1161=DIRECTION('center_axis',(0.,0.,-1.));
#1162=DIRECTION('ref_axis',(-1.,0.,0.));
#1163=DIRECTION('center_axis',(0.,-1.,0.));
#1164=DIRECTION('ref_axis',(-1.,0.,0.));
#1165=DIRECTION('',(0.,0.,-1.));
#1166=DIRECTION('',(-1.,0.,0.));
#1167=DIRECTION('center_axis',(1.,0.,0.));
#1168=DIRECTION('ref_axis',(0.,-1.,0.));
#1169=DIRECTION('',(0.,-1.,0.));
#1170=DIRECTION('center_axis',(0.,0.,-1.));
#1171=DIRECTION('ref_axis',(-1.,0.,0.));
#1172=DIRECTION('center_axis',(0.,-1.,0.));
#1173=DIRECTION('ref_axis',(-1.,0.,0.));
#1174=DIRECTION('',(0.,0.,-1.));
#1175=DIRECTION('',(-1.,0.,0.));
#1176=DIRECTION('center_axis',(1.,0.,0.));
#1177=DIRECTION('ref_axis',(0.,-1.,0.));
#1178=DIRECTION('',(0.,-1.,0.));
#1179=DIRECTION('center_axis',(0.,0.,-1.));
#1180=DIRECTION('ref_axis',(-1.,0.,0.));
#1181=DIRECTION('center_axis',(1.,0.,0.));
#1182=DIRECTION('ref_axis',(0.,-1.,0.));
#1183=DIRECTION('',(0.,-1.,0.));
#1184=DIRECTION('',(0.,0.,-1.));
#1185=DIRECTION('',(0.,-1.,0.));
#1186=DIRECTION('',(0.,0.,-1.));
#1187=DIRECTION('center_axis',(0.,-1.,0.));
#1188=DIRECTION('ref_axis',(-1.,0.,0.));
#1189=DIRECTION('',(-1.,0.,0.));
#1190=DIRECTION('',(0.,0.,-1.));
#1191=DIRECTION('',(-1.,0.,0.));
#1192=DIRECTION('center_axis',(1.,0.,0.));
#1193=DIRECTION('ref_axis',(0.,-1.,0.));
#1194=DIRECTION('',(0.,-1.,0.));
#1195=DIRECTION('',(0.,0.,-1.));
#1196=DIRECTION('',(0.,-1.,0.));
#1197=DIRECTION('center_axis',(0.,1.,0.));
#1198=DIRECTION('ref_axis',(1.,0.,0.));
#1199=DIRECTION('',(1.,0.,0.));
#1200=DIRECTION('',(0.,0.,-1.));
#1201=DIRECTION('',(1.,0.,0.));
#1202=DIRECTION('center_axis',(-1.,0.,0.));
#1203=DIRECTION('ref_axis',(0.,1.,0.));
#1204=DIRECTION('',(0.,1.,0.));
#1205=DIRECTION('',(0.,0.,-1.));
#1206=DIRECTION('',(0.,1.,0.));
#1207=DIRECTION('center_axis',(0.,-1.,0.));
#1208=DIRECTION('ref_axis',(-1.,0.,0.));
#1209=DIRECTION('',(-1.,0.,0.));
#1210=DIRECTION('',(-1.,0.,0.));
#1211=DIRECTION('center_axis',(0.,0.,-1.));
#1212=DIRECTION('ref_axis',(-1.,0.,0.));
#1213=DIRECTION('center_axis',(1.,0.,0.));
#1214=DIRECTION('ref_axis',(0.,-1.,0.));
#1215=DIRECTION('',(0.,-1.,0.));
#1216=DIRECTION('',(0.,0.,-1.));
#1217=DIRECTION('',(0.,-1.,0.));
#1218=DIRECTION('center_axis',(0.,1.,0.));
#1219=DIRECTION('ref_axis',(1.,0.,0.));
#1220=DIRECTION('',(1.,0.,0.));
#1221=DIRECTION('',(0.,0.,-1.));
#1222=DIRECTION('',(1.,0.,0.));
#1223=DIRECTION('center_axis',(-1.,0.,0.));
#1224=DIRECTION('ref_axis',(0.,1.,0.));
#1225=DIRECTION('',(0.,1.,0.));
#1226=DIRECTION('',(0.,1.,0.));
#1227=DIRECTION('center_axis',(0.,0.,-1.));
#1228=DIRECTION('ref_axis',(-1.,0.,0.));
#1229=DIRECTION('center_axis',(1.,0.,0.));
#1230=DIRECTION('ref_axis',(0.,-1.,0.));
#1231=DIRECTION('',(0.,0.,-1.));
#1232=DIRECTION('',(0.,-1.,0.));
#1233=DIRECTION('',(0.,0.,-1.));
#1234=DIRECTION('center_axis',(0.,1.,0.));
#1235=DIRECTION('ref_axis',(1.,0.,0.));
#1236=DIRECTION('',(0.,0.,-1.));
#1237=DIRECTION('',(1.,0.,0.));
#1238=DIRECTION('center_axis',(-1.,0.,0.));
#1239=DIRECTION('ref_axis',(0.,1.,0.));
#1240=DIRECTION('',(0.,0.,-1.));
#1241=DIRECTION('',(0.,1.,0.));
#1242=DIRECTION('center_axis',(0.,-1.,0.));
#1243=DIRECTION('ref_axis',(-1.,0.,0.));
#1244=DIRECTION('',(-1.,0.,0.));
#1245=DIRECTION('center_axis',(0.,0.,-1.));
#1246=DIRECTION('ref_axis',(-1.,0.,0.));
#1247=DIRECTION('center_axis',(-1.,0.,0.));
#1248=DIRECTION('ref_axis',(0.,-1.,0.));
#1249=DIRECTION('',(0.,1.,0.));
#1250=DIRECTION('',(0.,0.,1.));
#1251=DIRECTION('center_axis',(0.,1.,0.));
#1252=DIRECTION('ref_axis',(-1.,0.,0.));
#1253=DIRECTION('',(0.,0.,1.));
#1254=DIRECTION('',(1.,0.,0.));
#1255=DIRECTION('center_axis',(1.,0.,0.));
#1256=DIRECTION('ref_axis',(0.,1.,0.));
#1257=DIRECTION('',(0.,-1.,0.));
#1258=DIRECTION('center_axis',(0.,0.,1.));
#1259=DIRECTION('ref_axis',(1.,0.,0.));
#1260=CARTESIAN_POINT('',(0.,0.,0.));
#1261=CARTESIAN_POINT('Origin',(6.17509298374766,-60.,38.));
#1262=CARTESIAN_POINT('',(6.17509298374766,-60.,38.));
#1263=CARTESIAN_POINT('',(6.17509298374766,-57.0572117503822,38.));
#1264=CARTESIAN_POINT('',(6.17509298374766,-40.,38.));
#1265=CARTESIAN_POINT('',(6.17509298374766,-60.,28.));
#1266=CARTESIAN_POINT('',(6.17509298374766,-60.,19.));
#1267=CARTESIAN_POINT('',(6.17509298374766,-57.0572117503822,28.));
#1268=CARTESIAN_POINT('',(6.17509298374766,-59.2643029375956,28.));
#1269=CARTESIAN_POINT('',(6.17509298374766,-57.0572117503822,38.));
#1270=CARTESIAN_POINT('Origin',(-15.,-60.,0.));
#1271=CARTESIAN_POINT('',(40.,-60.,28.));
#1272=CARTESIAN_POINT('',(2.08754649187383,-60.,28.));
#1273=CARTESIAN_POINT('',(-15.,-60.,38.));
#1274=CARTESIAN_POINT('',(4.17509298374766,-60.,38.));
#1275=CARTESIAN_POINT('',(-15.,-60.,0.));
#1276=CARTESIAN_POINT('',(-15.,-60.,0.));
#1277=CARTESIAN_POINT('',(65.,-60.,0.));
#1278=CARTESIAN_POINT('',(65.,-60.,0.));
#1279=CARTESIAN_POINT('',(65.,-60.,38.));
#1280=CARTESIAN_POINT('',(65.,-60.,0.));
#1281=CARTESIAN_POINT('',(40.,-60.,38.));
#1282=CARTESIAN_POINT('',(65.,-60.,38.));
#1283=CARTESIAN_POINT('',(40.,-60.,19.));
#1284=CARTESIAN_POINT('Origin',(25.,-20.,38.));
#1285=CARTESIAN_POINT('',(-2.5050557902486,-57.0572117503822,38.));
#1286=CARTESIAN_POINT('',(43.7474721048757,-57.0572117503822,38.));
#1287=CARTESIAN_POINT('',(-2.5050557902486,12.9427882496178,38.));
#1288=CARTESIAN_POINT('',(-2.5050557902486,-38.5286058751911,38.));
#1289=CARTESIAN_POINT('',(19.1750929837477,12.9427882496178,38.));
#1290=CARTESIAN_POINT('',(11.2474721048757,12.9427882496178,38.));
#1291=CARTESIAN_POINT('',(19.1750929837477,20.,38.));
#1292=CARTESIAN_POINT('',(19.1750929837477,-1.02355008494251,38.));
#1293=CARTESIAN_POINT('',(-15.,20.,38.));
#1294=CARTESIAN_POINT('',(-15.,20.,38.));
#1295=CARTESIAN_POINT('',(-15.,-60.,38.));
#1296=CARTESIAN_POINT('',(-13.3000001937151,-57.0000005811453,38.));
#1297=CARTESIAN_POINT('',(-13.3000001937151,-48.8000005811453,38.));
#1298=CARTESIAN_POINT('',(-13.3000001937151,-34.5000002905726,38.));
#1299=CARTESIAN_POINT('',(-5.00000019371509,-48.8000005811453,38.));
#1300=CARTESIAN_POINT('',(5.99999990314245,-48.8000005811453,38.));
#1301=CARTESIAN_POINT('',(-5.00000019371509,-57.0000005811453,38.));
#1302=CARTESIAN_POINT('',(-5.00000019371509,-34.5000002905726,38.));
#1303=CARTESIAN_POINT('',(5.99999990314245,-57.0000005811453,38.));
#1304=CARTESIAN_POINT('',(-5.0000001937151,-27.000000551343,38.));
#1305=CARTESIAN_POINT('',(-13.3000001937151,-27.000000551343,38.));
#1306=CARTESIAN_POINT('',(5.99999990314245,-27.000000551343,38.));
#1307=CARTESIAN_POINT('',(-13.3000001937151,-18.800000551343,38.));
#1308=CARTESIAN_POINT('',(-13.3000001937151,-23.5000002756715,38.));
#1309=CARTESIAN_POINT('',(-5.0000001937151,-18.800000551343,38.));
#1310=CARTESIAN_POINT('',(5.94999990314245,-18.800000551343,38.));
#1311=CARTESIAN_POINT('',(-5.0000001937151,-19.5000002756715,38.));
#1312=CARTESIAN_POINT('',(-13.3000001937151,-47.0000005811453,38.));
#1313=CARTESIAN_POINT('',(-13.3000001937151,-38.8000005811453,38.));
#1314=CARTESIAN_POINT('',(-13.3000001937151,-29.5000002905726,38.));
#1315=CARTESIAN_POINT('',(-5.0000001937151,-38.8000005811453,38.));
#1316=CARTESIAN_POINT('',(5.99999990314245,-38.8000005811453,38.));
#1317=CARTESIAN_POINT('',(-5.0000001937151,-47.0000005811453,38.));
#1318=CARTESIAN_POINT('',(-5.0000001937151,-29.5000002905726,38.));
#1319=CARTESIAN_POINT('',(5.99999990314245,-47.0000005811453,38.));
#1320=CARTESIAN_POINT('',(-13.0000001937151,-37.000000551343,38.));
#1321=CARTESIAN_POINT('',(-13.3000001937151,-37.000000551343,38.));
#1322=CARTESIAN_POINT('',(5.99999990314245,-37.000000551343,38.));
#1323=CARTESIAN_POINT('',(-13.3000001937151,-28.800000551343,38.));
#1324=CARTESIAN_POINT('',(-13.3000001937151,-28.5000002756715,38.));
#1325=CARTESIAN_POINT('',(-5.0000001937151,-28.800000551343,38.));
#1326=CARTESIAN_POINT('',(5.94999990314245,-28.800000551343,38.));
#1327=CARTESIAN_POINT('',(-5.0000001937151,-37.0000005811453,38.));
#1328=CARTESIAN_POINT('',(-5.0000001937151,-24.5000002756715,38.));
#1329=CARTESIAN_POINT('',(9.99999987147748,-37.0000006370246,38.));
#1330=CARTESIAN_POINT('Origin',(-13.0000001937151,-48.8000005811453,38.));
#1331=CARTESIAN_POINT('',(-13.3000001937151,-48.8000005811453,29.));
#1332=CARTESIAN_POINT('',(-13.3000001937151,-48.8000005811453,38.));
#1333=CARTESIAN_POINT('',(-5.00000019371509,-48.8000005811453,29.));
#1334=CARTESIAN_POINT('',(-13.0000001937151,-48.8000005811453,29.));
#1335=CARTESIAN_POINT('',(-5.00000019371509,-48.8000005811453,38.));
#1336=CARTESIAN_POINT('Origin',(-13.0000001937151,-38.8000005811453,38.));
#1337=CARTESIAN_POINT('',(-13.3000001937151,-38.8000005811453,29.));
#1338=CARTESIAN_POINT('',(-13.3000001937151,-38.8000005811453,38.));
#1339=CARTESIAN_POINT('',(-5.0000001937151,-38.8000005811453,29.));
#1340=CARTESIAN_POINT('',(-13.0000001937151,-38.8000005811453,29.));
#1341=CARTESIAN_POINT('',(-5.0000001937151,-38.8000005811453,38.));
#1342=CARTESIAN_POINT('Origin',(-13.3000001937151,-47.0000005811453,38.));
#1343=CARTESIAN_POINT('',(-13.3000001937151,-47.0000005811453,29.));
#1344=CARTESIAN_POINT('',(-13.3000001937151,-47.0000005811453,38.));
#1345=CARTESIAN_POINT('',(-13.3000001937151,-47.0000005811453,29.));
#1346=CARTESIAN_POINT('Origin',(-13.3000001937151,-57.0000005811453,38.));
#1347=CARTESIAN_POINT('',(-13.3000001937151,-57.0000005811453,29.));
#1348=CARTESIAN_POINT('',(-13.3000001937151,-57.0000005811453,38.));
#1349=CARTESIAN_POINT('',(-13.3000001937151,-57.0000005811453,29.));
#1350=CARTESIAN_POINT('Origin',(-13.3000001937151,-37.000000551343,38.));
#1351=CARTESIAN_POINT('',(-13.3000001937151,-37.000000551343,29.));
#1352=CARTESIAN_POINT('',(-13.3000001937151,-37.000000551343,38.));
#1353=CARTESIAN_POINT('',(-13.3000001937151,-28.800000551343,29.));
#1354=CARTESIAN_POINT('',(-13.3000001937151,-37.000000551343,29.));
#1355=CARTESIAN_POINT('',(-13.3000001937151,-28.800000551343,38.));
#1356=CARTESIAN_POINT('Origin',(-13.3000001937151,-27.000000551343,38.));
#1357=CARTESIAN_POINT('',(-13.3000001937151,-27.000000551343,29.));
#1358=CARTESIAN_POINT('',(-13.3000001937151,-27.000000551343,38.));
#1359=CARTESIAN_POINT('',(-13.3000001937151,-18.800000551343,29.));
#1360=CARTESIAN_POINT('',(-13.3000001937151,-27.000000551343,29.));
#1361=CARTESIAN_POINT('',(-13.3000001937151,-18.800000551343,38.));
#1362=CARTESIAN_POINT('Origin',(-13.0000001937151,-18.800000551343,38.));
#1363=CARTESIAN_POINT('',(-5.0000001937151,-18.800000551343,29.));
#1364=CARTESIAN_POINT('',(-13.1000001937151,-18.800000551343,29.));
#1365=CARTESIAN_POINT('',(-5.0000001937151,-18.800000551343,38.));
#1366=CARTESIAN_POINT('Origin',(-13.0000001937151,-28.800000551343,38.));
#1367=CARTESIAN_POINT('',(-5.0000001937151,-28.800000551343,29.));
#1368=CARTESIAN_POINT('',(-13.1000001937151,-28.800000551343,29.));
#1369=CARTESIAN_POINT('',(-5.0000001937151,-28.800000551343,38.));
#1370=CARTESIAN_POINT('Origin',(-13.0000001937151,-37.000000551343,29.));
#1371=CARTESIAN_POINT('',(-13.0000001937151,-37.000000551343,29.));
#1372=CARTESIAN_POINT('',(-13.0000001937151,-37.000000551343,38.));
#1373=CARTESIAN_POINT('',(-13.0000001937151,-37.000000551343,29.));
#1374=CARTESIAN_POINT('Origin',(40.,-57.0572117503822,38.));
#1375=CARTESIAN_POINT('',(40.,-57.0572117503822,38.));
#1376=CARTESIAN_POINT('',(40.,-38.5286058751911,38.));
#1377=CARTESIAN_POINT('',(40.,-57.0572117503822,28.));
#1378=CARTESIAN_POINT('',(40.,-57.0572117503822,38.));
#1379=CARTESIAN_POINT('',(40.,-57.7929088127867,28.));
#1380=CARTESIAN_POINT('Origin',(40.,17.952899830115,38.));
#1381=CARTESIAN_POINT('',(40.,12.9427882496178,38.));
#1382=CARTESIAN_POINT('',(40.,20.,38.));
#1383=CARTESIAN_POINT('',(40.,-1.02355008494251,38.));
#1384=CARTESIAN_POINT('',(40.,20.,28.));
#1385=CARTESIAN_POINT('',(40.,20.,19.));
#1386=CARTESIAN_POINT('',(40.,12.9427882496178,28.));
#1387=CARTESIAN_POINT('',(40.,16.7003719349907,28.));
#1388=CARTESIAN_POINT('',(40.,12.9427882496178,38.));
#1389=CARTESIAN_POINT('Origin',(19.1750929837477,12.9427882496178,38.));
#1390=CARTESIAN_POINT('',(19.1750929837477,12.9427882496178,28.));
#1391=CARTESIAN_POINT('',(19.1750929837477,12.9427882496178,38.));
#1392=CARTESIAN_POINT('',(19.1750929837477,20.,28.));
#1393=CARTESIAN_POINT('',(19.1750929837477,14.1953161447421,28.));
#1394=CARTESIAN_POINT('',(19.1750929837477,20.,14.));
#1395=CARTESIAN_POINT('Origin',(25.,-20.,38.));
#1396=CARTESIAN_POINT('',(62.4949442097514,12.9427882496178,38.));
#1397=CARTESIAN_POINT('',(11.2474721048757,12.9427882496178,38.));
#1398=CARTESIAN_POINT('',(62.4949442097514,-57.0572117503822,38.));
#1399=CARTESIAN_POINT('',(62.4949442097514,-3.52860587519111,38.));
#1400=CARTESIAN_POINT('',(55.,-57.0572117503822,38.));
#1401=CARTESIAN_POINT('',(65.,20.,38.));
#1402=CARTESIAN_POINT('',(65.,20.,38.));
#1403=CARTESIAN_POINT('',(55.,20.,38.));
#1404=CARTESIAN_POINT('Origin',(29.5875464918738,15.4478440398664,28.));
#1405=CARTESIAN_POINT('',(60.,20.,28.));
#1406=CARTESIAN_POINT('',(13.5412453508126,12.9427882496178,28.));
#1407=CARTESIAN_POINT('Origin',(29.5875464918738,-58.5286058751911,28.));
#1408=CARTESIAN_POINT('',(46.0412453508126,-57.0572117503822,28.));
#1409=CARTESIAN_POINT('Origin',(35.4949442097514,-52.0572117503822,13.));
#1410=CARTESIAN_POINT('',(35.4949442097514,-52.0572117503822,13.));
#1411=CARTESIAN_POINT('',(0.494944209751393,-52.0572117503822,13.));
#1412=CARTESIAN_POINT('',(32.7449442097514,-52.0572117503822,13.));
#1413=CARTESIAN_POINT('',(35.4949442097514,-52.0572117503822,10.));
#1414=CARTESIAN_POINT('',(35.4949442097514,-52.0572117503822,13.));
#1415=CARTESIAN_POINT('',(0.494944209751393,-52.0572117503822,10.));
#1416=CARTESIAN_POINT('',(35.4949442097514,-52.0572117503822,10.));
#1417=CARTESIAN_POINT('',(0.494944209751396,-52.0572117503822,13.));
#1418=CARTESIAN_POINT('Origin',(-5.0000001937151,-37.0000005811453,38.));
#1419=CARTESIAN_POINT('',(-5.0000001937151,-37.0000005811453,29.));
#1420=CARTESIAN_POINT('',(-5.0000001937151,-37.0000005811453,38.));
#1421=CARTESIAN_POINT('',(-5.0000001937151,-37.0000005811453,29.));
#1422=CARTESIAN_POINT('Origin',(-5.0000001937151,-29.000000551343,38.));
#1423=CARTESIAN_POINT('',(-5.0000001937151,-29.000000551343,29.));
#1424=CARTESIAN_POINT('Origin',(-9.0000001937151,-33.0000005662441,29.));
#1425=CARTESIAN_POINT('Origin',(-5.0000001937151,-39.0000005811453,38.));
#1426=CARTESIAN_POINT('',(-5.0000001937151,-47.0000005811453,29.));
#1427=CARTESIAN_POINT('',(-5.0000001937151,-39.0000005811453,29.));
#1428=CARTESIAN_POINT('',(-5.0000001937151,-47.0000005811453,38.));
#1429=CARTESIAN_POINT('Origin',(-5.0000001937151,-47.0000005811453,38.));
#1430=CARTESIAN_POINT('',(-13.0000001937151,-47.0000005811453,29.));
#1431=CARTESIAN_POINT('Origin',(-9.0000001937151,-43.0000005811453,29.));
#1432=CARTESIAN_POINT('Origin',(-5.0000001937151,-27.000000551343,38.));
#1433=CARTESIAN_POINT('',(-5.0000001937151,-27.000000551343,29.));
#1434=CARTESIAN_POINT('',(-5.0000001937151,-27.000000551343,38.));
#1435=CARTESIAN_POINT('',(-13.0000001937151,-27.000000551343,29.));
#1436=CARTESIAN_POINT('Origin',(-5.0000001937151,-19.000000551343,38.));
#1437=CARTESIAN_POINT('',(-5.0000001937151,-19.000000551343,29.));
#1438=CARTESIAN_POINT('Origin',(-9.0000001937151,-23.000000551343,29.));
#1439=CARTESIAN_POINT('Origin',(-5.00000019371509,-57.0000005811453,38.));
#1440=CARTESIAN_POINT('',(-5.00000019371509,-57.0000005811453,29.));
#1441=CARTESIAN_POINT('',(-5.00000019371509,-57.0000005811453,38.));
#1442=CARTESIAN_POINT('',(-13.0000001937151,-57.0000005811453,29.));
#1443=CARTESIAN_POINT('Origin',(-5.00000019371509,-49.0000005811453,38.));
#1444=CARTESIAN_POINT('',(-5.00000019371509,-49.0000005811453,29.));
#1445=CARTESIAN_POINT('Origin',(-9.00000019371509,-53.0000005811453,29.));
#1446=CARTESIAN_POINT('Origin',(9.50000008940697,2.50000008940697,13.));
#1447=CARTESIAN_POINT('',(9.50000008940697,2.50000008940697,13.));
#1448=CARTESIAN_POINT('',(9.50000008940697,-10.999999910593,13.));
#1449=CARTESIAN_POINT('',(9.50000008940697,-9.77860583048763,13.));
#1450=CARTESIAN_POINT('',(9.50000008940697,2.50000008940697,9.));
#1451=CARTESIAN_POINT('',(9.50000008940697,2.50000008940697,13.));
#1452=CARTESIAN_POINT('',(9.50000008940697,-10.999999910593,9.));
#1453=CARTESIAN_POINT('',(9.50000008940697,6.00000008940697,9.));
#1454=CARTESIAN_POINT('',(9.50000008940697,-10.999999910593,13.));
#1455=CARTESIAN_POINT('Origin',(56.000000089407,2.50000008940697,13.));
#1456=CARTESIAN_POINT('',(56.000000089407,2.50000008940697,13.));
#1457=CARTESIAN_POINT('',(42.9974721495792,2.50000008940697,13.));
#1458=CARTESIAN_POINT('',(56.000000089407,2.50000008940697,9.));
#1459=CARTESIAN_POINT('',(56.000000089407,2.50000008940697,13.));
#1460=CARTESIAN_POINT('',(56.000000089407,2.50000008940697,9.));
#1461=CARTESIAN_POINT('Origin',(56.000000089407,6.00000008940697,13.));
#1462=CARTESIAN_POINT('',(56.000000089407,6.00000008940697,13.));
#1463=CARTESIAN_POINT('',(56.000000089407,-8.02860583048763,13.));
#1464=CARTESIAN_POINT('',(56.000000089407,6.00000008940697,9.));
#1465=CARTESIAN_POINT('',(56.000000089407,6.00000008940697,13.));
#1466=CARTESIAN_POINT('',(56.000000089407,6.00000008940697,9.));
#1467=CARTESIAN_POINT('Origin',(6.00000008940697,6.00000008940697,13.));
#1468=CARTESIAN_POINT('',(6.00000008940697,6.00000008940697,13.));
#1469=CARTESIAN_POINT('',(17.9974721495792,6.00000008940697,13.));
#1470=CARTESIAN_POINT('',(6.00000008940697,6.00000008940697,9.));
#1471=CARTESIAN_POINT('',(6.00000008940697,6.00000008940697,13.));
#1472=CARTESIAN_POINT('',(6.00000008940697,6.00000008940697,9.));
#1473=CARTESIAN_POINT('Origin',(6.00000008940697,-10.999999910593,13.));
#1474=CARTESIAN_POINT('',(6.00000008940697,-10.999999910593,13.));
#1475=CARTESIAN_POINT('',(6.00000008940697,-16.5286058304876,13.));
#1476=CARTESIAN_POINT('',(6.00000008940697,-10.999999910593,9.));
#1477=CARTESIAN_POINT('',(6.00000008940697,-10.999999910593,13.));
#1478=CARTESIAN_POINT('',(6.00000008940697,-10.999999910593,9.));
#1479=CARTESIAN_POINT('Origin',(9.50000008940697,-10.999999910593,13.));
#1480=CARTESIAN_POINT('',(19.7474721495792,-10.999999910593,13.));
#1481=CARTESIAN_POINT('',(9.50000008940697,-10.999999910593,9.));
#1482=CARTESIAN_POINT('Origin',(31.000000089407,-2.49999991059303,9.));
#1483=CARTESIAN_POINT('Origin',(35.4949442097514,-24.0572117503822,13.));
#1484=CARTESIAN_POINT('',(35.4949442097514,-24.0572117503822,13.));
#1485=CARTESIAN_POINT('',(35.4949442097514,-23.0572117503822,13.));
#1486=CARTESIAN_POINT('',(35.4949442097514,-24.0572117503822,10.));
#1487=CARTESIAN_POINT('',(35.4949442097514,-24.0572117503822,13.));
#1488=CARTESIAN_POINT('',(35.4949442097514,-47.0572117503822,10.));
#1489=CARTESIAN_POINT('Origin',(0.494944209751396,-24.0572117503822,13.));
#1490=CARTESIAN_POINT('',(0.494944209751396,-24.0572117503822,13.));
#1491=CARTESIAN_POINT('',(15.2449442097514,-24.0572117503822,13.));
#1492=CARTESIAN_POINT('',(0.494944209751393,-24.0572117503822,10.));
#1493=CARTESIAN_POINT('',(0.494944209751396,-24.0572117503822,13.));
#1494=CARTESIAN_POINT('',(0.494944209751396,-24.0572117503822,10.));
#1495=CARTESIAN_POINT('Origin',(0.494944209751396,-47.0572117503822,13.));
#1496=CARTESIAN_POINT('',(0.494944209751393,-34.5572117503822,13.));
#1497=CARTESIAN_POINT('',(0.494944209751396,-47.0572117503822,10.));
#1498=CARTESIAN_POINT('Origin',(17.9949442097514,-35.5572117503822,10.));
#1499=CARTESIAN_POINT('Origin',(62.4949442097514,12.9427882496178,38.));
#1500=CARTESIAN_POINT('',(62.4949442097514,12.9427882496178,13.));
#1501=CARTESIAN_POINT('',(62.4949442097514,12.9427882496178,38.));
#1502=CARTESIAN_POINT('',(62.4949442097514,-57.0572117503822,13.));
#1503=CARTESIAN_POINT('',(62.4949442097514,12.9427882496178,13.));
#1504=CARTESIAN_POINT('',(62.4949442097514,-57.0572117503822,38.));
#1505=CARTESIAN_POINT('Origin',(-2.5050557902486,12.9427882496178,38.));
#1506=CARTESIAN_POINT('',(-2.5050557902486,12.9427882496178,13.));
#1507=CARTESIAN_POINT('',(-2.5050557902486,12.9427882496178,38.));
#1508=CARTESIAN_POINT('',(-2.5050557902486,12.9427882496178,13.));
#1509=CARTESIAN_POINT('Origin',(-2.5050557902486,-57.0572117503822,38.));
#1510=CARTESIAN_POINT('',(-2.5050557902486,-57.0572117503822,13.));
#1511=CARTESIAN_POINT('',(-2.5050557902486,-57.0572117503822,38.));
#1512=CARTESIAN_POINT('',(-2.5050557902486,-57.0572117503822,13.));
#1513=CARTESIAN_POINT('Origin',(62.4949442097514,-57.0572117503822,38.));
#1514=CARTESIAN_POINT('',(62.4949442097514,-57.0572117503822,13.));
#1515=CARTESIAN_POINT('Origin',(29.9949442097514,-22.0572117503822,13.));
#1516=CARTESIAN_POINT('Origin',(-15.,20.,0.));
#1517=CARTESIAN_POINT('',(-15.,20.,0.));
#1518=CARTESIAN_POINT('',(-15.,-60.,0.));
#1519=CARTESIAN_POINT('',(-15.,20.,0.));
#1520=CARTESIAN_POINT('Origin',(65.,20.,0.));
#1521=CARTESIAN_POINT('',(65.,20.,0.));
#1522=CARTESIAN_POINT('',(65.,20.,0.));
#1523=CARTESIAN_POINT('',(-15.,20.,0.));
#1524=CARTESIAN_POINT('Origin',(65.,-60.,0.));
#1525=CARTESIAN_POINT('',(65.,20.,0.));
#1526=CARTESIAN_POINT('Origin',(25.,-20.,0.));
#1527=UNCERTAINTY_MEASURE_WITH_UNIT(LENGTH_MEASURE(0.01),#1531,
'DISTANCE_ACCURACY_VALUE',
'Maximum model space distance between geometric entities at asserted c
onnectivities');
#1528=UNCERTAINTY_MEASURE_WITH_UNIT(LENGTH_MEASURE(0.01),#1531,
'DISTANCE_ACCURACY_VALUE',
'Maximum model space distance between geometric entities at asserted c
onnectivities');
#1529=(
GEOMETRIC_REPRESENTATION_CONTEXT(3)
GLOBAL_UNCERTAINTY_ASSIGNED_CONTEXT((#1527))
GLOBAL_UNIT_ASSIGNED_CONTEXT((#1531,#1533,#1534))
REPRESENTATION_CONTEXT('','3D')
);
#1530=(
GEOMETRIC_REPRESENTATION_CONTEXT(3)
GLOBAL_UNCERTAINTY_ASSIGNED_CONTEXT((#1528))
GLOBAL_UNIT_ASSIGNED_CONTEXT((#1531,#1533,#1534))
REPRESENTATION_CONTEXT('','3D')
);
#1531=(
LENGTH_UNIT()
NAMED_UNIT(*)
SI_UNIT(.MILLI.,.METRE.)
);
#1532=(
LENGTH_UNIT()
NAMED_UNIT(*)
SI_UNIT($,.METRE.)
);
#1533=(
NAMED_UNIT(*)
PLANE_ANGLE_UNIT()
SI_UNIT($,.RADIAN.)
);
#1534=(
NAMED_UNIT(*)
SI_UNIT($,.STERADIAN.)
SOLID_ANGLE_UNIT()
);
#1535=SHAPE_DEFINITION_REPRESENTATION(#1536,#1537);
#1536=PRODUCT_DEFINITION_SHAPE('',$,#1539);
#1537=SHAPE_REPRESENTATION('',(#975),#1529);
#1538=PRODUCT_DEFINITION_CONTEXT('part definition',#1543,'design');
#1539=PRODUCT_DEFINITION('2026-02-20-22-15-34-680','package_1',#1540,#1538);
#1540=PRODUCT_DEFINITION_FORMATION('',$,#1545);
#1541=PRODUCT_RELATED_PRODUCT_CATEGORY('package_1','package_1',(#1545));
#1542=APPLICATION_PROTOCOL_DEFINITION('international standard',
'automotive_design',2009,#1543);
#1543=APPLICATION_CONTEXT(
'Core Data for Automotive Mechanical Design Process');
#1544=PRODUCT_CONTEXT('part definition',#1543,'mechanical');
#1545=PRODUCT('2026-02-20-22-15-34-680','package_1',$,(#1544));
#1546=PRESENTATION_STYLE_ASSIGNMENT((#1547));
#1547=SURFACE_STYLE_USAGE(.BOTH.,#1548);
#1548=SURFACE_SIDE_STYLE('',(#1549));
#1549=SURFACE_STYLE_FILL_AREA(#1550);
#1550=FILL_AREA_STYLE('Acero - Satinado',(#1551));
#1551=FILL_AREA_STYLE_COLOUR('Acero - Satinado',#1552);
#1552=COLOUR_RGB('Acero - Satinado',0.627450980392157,0.627450980392157,
0.627450980392157);
ENDSEC;
END-ISO-10303-21;
